<?xml version="1.0" encoding="utf-8"?>
<!-- Generator: Adobe Illustrator 24.1.3, SVG Export Plug-In . SVG Version: 6.00 Build 0)  -->
<svg version="1.1" id="Layer_1" xmlns="http://www.w3.org/2000/svg" xmlns:xlink="http://www.w3.org/1999/xlink" x="0px" y="0px"
	 viewBox="0 0 191.78 39.34" style="enable-background:new 0 0 191.78 39.34;" xml:space="preserve">
<style type="text/css">
	.st0{fill:#DFE43F;}
	.st1{enable-background:new    ;}
	.st2{fill:#DAE023;}
</style>
<g>
	<g>
		<g>
			<g>
				<g>
					<path class="st0" d="M191.78,36.13c0.1-0.09,0.04-0.28-0.23-0.24l-0.2,0.33L191.78,36.13z"/>
					<path class="st0" d="M189.92,35.52c-0.33,0.16-0.7,0.44-0.49,0.75c0.32-0.32,0.4-0.19,0.75-0.56c0.28-0.04,0.48,0.11,0.44,0.23
						c0.1-0.08,0.43,0.07,0.58-0.14c-0.36-0.26-0.82-0.27-1.3-0.05C189.8,35.67,189.9,35.58,189.92,35.52z"/>
					<path class="st0" d="M162.81,35l0.17,0.04C162.93,35.02,162.87,35.01,162.81,35z"/>
					<path class="st0" d="M146.01,34.82c0.13-0.01,0.18-0.04,0.19-0.07C146.08,34.77,145.98,34.79,146.01,34.82z"/>
					<path class="st0" d="M143.14,34.46c0.06,0.01,0.11,0.02,0.17,0.02C143.25,34.45,143.18,34.43,143.14,34.46z"/>
					<path class="st0" d="M162.81,35l-0.45-0.1C162.33,35.01,162.59,34.98,162.81,35z"/>
					<path class="st0" d="M186.18,36.32c0.09-0.02,0.17-0.05,0.24-0.09c-0.08,0.01-0.15,0.03-0.23,0.04
						C186.19,36.28,186.19,36.3,186.18,36.32z"/>
					<path class="st0" d="M170.21,34.73l0.14,0c0.04-0.04,0.08-0.08,0.11-0.13L170.21,34.73z"/>
					<path class="st0" d="M175.9,34.68c-0.13-0.01-0.17,0.27-0.22,0.39c0.07-0.12,0.17-0.17,0.28-0.19
						C175.95,34.83,175.94,34.76,175.9,34.68z"/>
					<path class="st0" d="M184.91,35.18l0.16-0.04C185.02,35.15,184.95,35.16,184.91,35.18z"/>
					<path class="st0" d="M166.14,34.67c-0.01-0.04-0.03-0.08-0.05-0.1C166.09,34.61,166.11,34.64,166.14,34.67z"/>
					<path class="st0" d="M7.19,36.78c0-0.02,0-0.03,0-0.05C7.16,36.76,7.15,36.78,7.19,36.78z"/>
					<path class="st0" d="M0.61,35.39l0.09-0.02c0.01-0.05,0.02-0.11,0.02-0.16L0.61,35.39z"/>
					<path class="st0" d="M137.89,34.1c0.01,0,0.01,0,0.02,0.01C138.05,34.07,137.98,34.07,137.89,34.1z"/>
					<path class="st0" d="M89.71,34.3c0.55,0.25-0.89,0.32-0.07,0.6C89.57,34.79,90.39,34.47,89.71,34.3z"/>
					<path class="st0" d="M186.03,36.28c-0.08,0-0.15,0.01-0.23,0C185.91,36.29,185.98,36.29,186.03,36.28z"/>
					<path class="st0" d="M89.64,34.9C89.64,34.91,89.64,34.91,89.64,34.9l0.08,0.03C89.69,34.92,89.67,34.91,89.64,34.9z"/>
					<path class="st0" d="M125.8,34.26c0.02,0.05,0.07,0.09,0.12,0.12C125.92,34.36,125.89,34.32,125.8,34.26z"/>
					<path class="st0" d="M134.81,34.66l-0.22-0.04C134.67,34.65,134.75,34.66,134.81,34.66z"/>
					<path class="st0" d="M121.12,34.66c-0.12-0.02-0.16-0.06-0.33-0.02c0.02,0.01,0.03,0.02,0.05,0.03
						C120.9,34.63,120.98,34.62,121.12,34.66z"/>
					<path class="st0" d="M116.25,34.66c0.03,0.02,0.06,0.04,0.09,0.06c0.05-0.01,0.1-0.01,0.15-0.02L116.25,34.66z"/>
					<path class="st0" d="M21.99,36.65c-0.11-0.08-0.17-0.17-0.22-0.25C21.84,36.6,21.13,36.67,21.99,36.65z"/>
					<path class="st0" d="M186.18,36.16c-0.03,0.07-0.07,0.11-0.14,0.12c0.06,0,0.11-0.01,0.16-0.02
						C186.21,36.22,186.21,36.18,186.18,36.16z"/>
					<path class="st0" d="M120.92,36.88l-0.77-0.04C120.37,36.86,120.65,36.88,120.92,36.88z"/>
					<path class="st0" d="M56.92,36.61l-0.18,0.03C56.81,36.65,56.88,36.64,56.92,36.61z"/>
					<path class="st0" d="M117.85,36.88c-0.14-0.1-0.28-0.16-0.44-0.19c-0.03,0.02-0.07,0.04-0.09,0.07L117.85,36.88z"/>
					<path class="st0" d="M21.77,36.39C21.77,36.4,21.77,36.4,21.77,36.39C21.77,36.4,21.77,36.4,21.77,36.39z"/>
					<path class="st0" d="M16.67,37.06c0.74,0.01,0.35-0.36,0.5-0.57c0.88-0.1,0.41,0.27,0.71,0.46c0.55-0.1,0.97-0.44,1.38-0.42
						c0.03,0.06,0.11,0.08,0.02,0.16c0.58-0.29,1.72-0.01,2.4-0.38c0.05,0.03,0.08,0.06,0.09,0.09c-0.11-0.19-0.13-0.37-0.1-0.51
						c0.33-0.01,0.61-0.23,0.74,0.01c-0.2-0.01-0.22,0.09-0.31,0.17l0.35-0.1c0.31,0.35-0.47,0.12-0.47,0.38
						c0.68-0.11,1.46-0.4,1.98-0.3c0.11,0.34-1.21,0.11-0.52,0.42l-0.8-0.13c0.61,0.54-0.49-0.04,0.08,0.54
						c1.05,0.1,1.18-0.17,2.23-0.07c0.24-0.19-0.08-0.28,0.16-0.47c1.49-0.34,1.18,0.85,2.27,0.4c0.28-0.23,0.39-0.66,1.18-0.43
						l-0.27,0.38c1.02,0.04,0.58-0.55,1.65-0.29c-0.19,0.15-0.8,0.13-0.65,0.17c0.69,0.3,0.49-0.22,1.02-0.22l0.11,0.34
						c1.09-0.05,2.28-0.3,3.48-0.36c-0.07,0.1-0.27,0.21,0.01,0.31c1.52-0.17,3.24,0.04,4.7,0.24l0.56-0.29
						c0.13,0,0.24,0.13,0.1,0.19c0.57,0.11,0.03-0.19,0.3-0.3c0.32-0.02,0.43,0.17,0.22,0.26c1.01-0.25,2.87-0.54,3.93-0.22
						l-0.21,0.09c0.83,0.12,0.93-0.6,1.7-0.33l-0.15,0.05c1.79,0.13,3.77-0.14,5.14,0.3c0.26-0.42,1.77,0.19,1.89-0.4
						c1.02,0.29,0.73,0.4,2.17,0.59c0.38,0.03,0.57-0.37,1.05-0.43l0.01,0.31l0.65-0.32l0.34,0.37l0.45-0.08
						c-0.18-0.02-0.38-0.14-0.35-0.23c0.7-0.14,1.7,0.21,1.72,0.37l1.65-0.26c-0.04,0.12-0.31,0.17-0.53,0.25
						c0.88-0.31,0.16,0.32,0.97,0.04c-0.11-0.07,0.06-0.18,0.08-0.25c0.4,0.19,1.32,0.19,1.99,0.11l-0.13,0.21
						c1.22,0.05,2.58-0.1,3.95-0.1c-0.49-0.1-0.38-0.47,0.02-0.5l0.16,0.33c0.26-0.2-0.42-0.12,0.11-0.37
						c0.51,0.04,0.34,0.37,0.05,0.48l0.62-0.11c0.04,0.1-0.11,0.15-0.15,0.27c0.26-0.2,1.08,0.33,1.45-0.02l0.04,0.1
						c1.37,0,1.99-0.11,3.11-0.13c0.02-0.28,0.46-0.22,0.79-0.45c0.82,0.09,1.73,0.31,2.72,0.29c0.7-0.14,0.2-0.24,0.52-0.41
						c0.05,0.26,1.04,0.23,0.53,0.42c1.19-0.04,1.52-0.05,3.02-0.26c-0.16-0.1-0.35-0.15-0.25-0.24c0.27-0.04,0.62,0.11,0.58,0.23
						l-0.07,0.03c1.69-0.38,3.89,0.75,5.24,0.21l-0.08,0.03l1.39-0.28c0.64,0.04-0.38,0.19,0.09,0.35c1.5-0.43,2.37,0.06,3.61-0.22
						c0.96,0.76,3.4-0.05,4.69,0.43l-0.07-0.18c0.33-0.17,0.4,0.1,0.65,0.14c-0.03-0.14-0.36-0.16-0.15-0.26
						c2.83-0.21,5.84,0.26,8.74,0.42c1.06,0.05,0.6-0.92,1.94-0.5l-0.38,0.33c2.14-0.4,4.38,0.01,6.47-0.32
						c-0.12,0.08-0.13,0.18-0.33,0.17c0.44,0.24,1.64,0.01,1.64-0.18c0.33,0.02,0.08,0.18,0.28,0.28c0.44,0.14,1.11-0.31,1.35-0.07
						c0.04,0.04-0.12,0.08-0.21,0.1c0.29-0.12,1.35,0.03,1.07-0.25c0.79,0.13,1.51-0.12,2.13,0.04c0.41-0.31,1.35,0.15,1.48-0.29
						c-0.06,0.45,1.38,0.36,1.88,0.15c-0.17,0.14,0.43,0.14,0.24,0.33c0.57-0.01,1.09-0.09,0.99-0.32c1.05,0.54,2.1-0.44,2.69,0.26
						c1.69-0.24,3.25-0.41,4.76-0.51c-0.05,0.45-1.68,0.04-1.61,0.52c1.44-0.19,2.27-0.57,3.7-0.46c0.37,0.06-0.21,0.2-0.33,0.27
						c1.44-0.19,2.78,0.04,4.06-0.2c0,0.04-0.14,0.09-0.27,0.12c0.25-0.01,0.59,0.07,0.56-0.14l-0.25,0.06
						c-0.4-0.3,1-0.62,1.05-0.78c-0.43,0.59,1.26,0.15,0.58,0.89c0.17-0.04,0.37-0.14,0.34-0.27c0.25,0.04,0.32,0.12,0.07,0.28
						c0.9-0.11,0.58-0.33,1.4-0.33c0,0.1-0.17,0.14-0.25,0.25c0.41-0.19,0.83-0.39,1.52-0.3c-0.04,0.06,0.04,0.14-0.17,0.14
						c1.19-0.03,2.02-0.52,3.33-0.33c-0.38,0.43,0.44,0.14,0.51,0.52l0.7-0.11l-0.28-0.18c0.61,0.01,1.16-0.27,1.68-0.14l-0.46,0.15
						l1.15-0.07l-0.65-0.14c0.62-0.19-0.07-0.47,0.75-0.37c-0.17,0.04,0.61,0,0.93,0.22c0,0,0,0,0,0c0.3-0.12,0.62-0.24,1.07-0.15
						c0.12,0.12-0.09,0.41-0.02,0.49c0.3-0.31,1.44-0.09,1.82-0.42c-0.13,0.08-0.13,0.27-0.09,0.31l0.25-0.25
						c0.28,0.08,0.33,0.12,0.28,0.28c0.86,0.05-0.27-0.47,0.74-0.27c-0.08,0.02-0.04,0.06-0.21,0.1c1.02,0.11,1.97-0.16,2.91-0.04
						c0.28,0.38-0.82,0.09-0.5,0.41c1.35-0.07,2.8-0.45,4.1-0.36l-0.24-0.04c0.18-0.53,0.97,0.26,1.63,0.01
						c-0.16,0.04-0.21,0.29-0.17,0.24c0.89,0.09,1.83-0.13,3.19-0.3l-0.17,0.14c0.53,0.12,1.39,0.07,1.96,0.13
						c0.17-0.14,0.49-0.11,0.3-0.31c1.76,0.78,3.35-0.42,4.91,0.23c-0.19,0-0.44,0.12-0.3,0.12l1.33-0.13
						c-0.11-0.23-0.17-0.14-0.45-0.32c0.17-0.14,0.54-0.24,0.87-0.24c-0.6,0.15,0.01,0.37,0.26,0.5c-0.04-0.07,0.05-0.15,0.02-0.22
						c0.69,0.41,0.12-0.46,1.06-0.19l-0.05,0.12c0.35-0.06,0.68-0.22,1.06-0.19c0.16,0.27-0.38,0.12-0.4,0.34
						c0.54-0.02,1.06-0.51,1.54-0.24c-0.23,0.07-0.56,0.08-0.78,0.15c0.53,0.31,0.59,0.23,0.98,0.28l-0.04-0.01l0.91,0.14
						l-0.23-0.09c0.67-0.7,1.37-0.13,2.27-0.58c-0.88,0.43-0.15,0.25-0.21,0.55c0.23,0.08,0.58,0.18,0.48,0.26
						c0.43-0.24,0.71,0.19,1.32-0.16c0.03,0.1,0.46,0.01,0.36,0.25c0.56-0.08-0.13-0.17-0.08-0.29c0.86-0.33,2.01,0.4,3.25-0.05
						c1.06-0.19,1.26-0.52,2.25-0.68c0.33,0.16-0.27,0.36-0.27,0.36c0.54,0.14,0.94,0.12,1.45,0.01c-0.1,0.09,0,0.16,0.16,0.27
						c0.41-0.03,0.27-0.36,0.81-0.21c-0.09,0.11-0.21,0.28-0.41,0.39c0.48-0.09,0.95-0.27,1.45-0.36c0.13,0.17-0.3,0.26-0.47,0.37
						c0.56-0.08,1.44-0.15,1.61-0.42l-0.36-0.1c0.2-0.01,0.1,0.23-0.05,0.28c-0.48,0.21-0.69-0.09-0.72-0.19l0.35-0.06
						c-0.36-0.57-1.42,0.09-2.13,0.06l0.3-0.42l-0.73,0.35c-0.15-0.11-0.26-0.34,0.09-0.4c-0.51-0.21-0.45,0.15-0.89-0.08
						c-0.05-0.04-0.03-0.06,0.02-0.07l-0.5,0.12c0.1-0.09-0.08-0.29,0.22-0.23c-0.89-0.24-1.44,0.31-1.78,0l0.07-0.03
						c-1.24,0.14-0.12,0.31-1.05,0.66l-0.63-0.75l-0.12,0.31c-0.13-0.01-0.38-0.03-0.33-0.16c-0.48,0.21,0.08,0.13-0.2,0.33
						c-0.62-0.28-1.7,0.13-1.84-0.36c-0.22,0.23,0.59,0.18-0.07,0.34c-0.19-0.52-0.76,0.09-1.32-0.15c0.17-0.27,0.71-0.13,0.14-0.37
						c-0.34,0.46-1.09-0.1-1.57-0.01c-0.02,0.36-1.03,0.15-1.83,0.27c0.05-0.12-1.5-0.2-2.24-0.33l0.02-0.06
						c-0.14,0.37-0.91,0.3-1.46,0.37c0.02-0.22,0.12-0.31,0.42-0.4l-0.52,0c-0.12,0.12-0.29,0.18-0.63,0.22l0.13-0.27
						c-0.7,0.02-1.4,0.32-2.3,0.14c-0.05,0.26,0.71,0.71-0.23,0.88c-0.04-0.14-0.07-0.38,0.18-0.43c-0.08,0.02-0.29,0.12-0.45,0.06
						l0.38-0.23c-0.41-0.1-0.21,0.19-0.54,0.17c0.01-0.2-0.24-0.14-0.19-0.3c0.08-0.02,0.28,0.08,0.41,0
						c-0.37-0.04-0.81-0.15-0.96-0.3c0.03,0.11,0,0.27-0.27,0.29c-0.7,0.01-0.24-0.24-0.64-0.34c-0.17,0.14-0.61,0-0.62,0.29
						c-0.2,0-0.24-0.14-0.32-0.22c-0.36,0.13-1.68,0.04-1.28,0.35l0.09,0.02c-0.02,0.01-0.04,0.01-0.06,0.01c0,0,0,0,0,0h0
						c-1.18,0.29-2.45-0.17-3.62-0.04l0-0.1c-0.7,0.11-1.56,0.07-2.05,0.28c-0.21,0-0.49-0.18-0.4-0.3
						c-0.53,0.07-0.59,0.19-1.37,0.02c0.54-0.17-0.19-0.15,0.55-0.13c-0.69-0.09-0.85-0.24-1.6,0.03c0.25-0.25-0.52-0.32-0.85-0.24
						l0.49,0.18c-0.37,0.04-0.7,0.01-1.02-0.01l0.18-0.33c-1.42-0.4-2.56,0.69-3.64,0.01c-0.38,0.23,0.77,0.16,0.44,0.44
						c-0.65-0.04-1.33-0.52-1.54-0.52c-0.89-0.18-0.84,0.49-1.77,0.36c0.12,0.12,0.23,0.44-0.47,0.55c-0.65-0.04-0.8-0.5-0.39-0.59
						c0.16-0.01,0.23,0.03,0.23,0.07c0.21-0.04,0.49-0.09,0.23-0.22l-0.08,0.12c-0.32-0.12-1.22-0.11-1.01-0.3
						c-0.49,0.11-0.21,0.19,0.15,0.26c-0.84-0.17-1.31-0.01-2.17-0.12c0.14,0.07,0.26,0.2,0.13,0.2c-1.27-0.15-0.56,0.23-1.42,0.28
						c-0.49-0.18,0.17-0.43-0.69-0.28c-0.53-0.12-0.11-0.31,0.1-0.41c-0.79,0.23-1.47-0.15-1.92-0.19l0.41-0.1
						c-0.25,0.06-0.45,0.06-0.66,0.05l0.24,0.24c-0.24-0.04-0.45-0.04-0.44-0.14c-0.25,0.16,0.19,0.39-0.31,0.61
						c-0.32-0.12-0.99,0.13-1.1-0.19c1.02,0.11-0.11-0.32,0.75-0.37c-0.17,0.04-0.37,0.04-0.61-0.01c-0.04-0.04,0.03-0.07,0.1-0.08
						c-0.98-0.28-0.45,0.36-1.46,0.35c0.13-0.18-0.23-0.34-0.4-0.3c0.41,0,0.2,0.3-0.18,0.43c-0.65-0.14-0.71,0.1-1.04,0.09
						l0.39,0.06c-0.13,0.18-0.46,0.15-0.91,0.21c-0.04-0.14,0.41-0.1,0.25-0.16c-0.5,0.31-1.13-0.32-1.83-0.11
						c-0.32-0.12-0.03-0.33-0.32-0.42c-0.78,0.23-0.85-0.24-1.67-0.05c0.24,0.24,0.28,0.18-0.3,0.41l1.36-0.17l-0.87,0.35
						c0.41,0,0.86-0.15,1.11-0.11c-0.41,0.19-0.37,0.14-0.18,0.33c-0.56-0.36-1.11,0.21-1.76-0.03l0.02-0.59
						c-0.97-0.26-1.73,0.3-2.99,0.15l0.41,0.1c-0.17,0.23-0.78,0.03-1.19,0.13c0.04-0.2-0.22-0.27-0.39-0.39
						c0.02,0.15-0.92-0.01-1.04,0.38l-0.56-0.26c-1.02-0.11-1.16,0.56-2.15,0.5c0.3-0.21-0.15-0.35,0.51-0.51
						c-0.33,0-0.62-0.04-0.63,0.1c-0.19-0.12-0.91,0.27-1.21,0.08c-0.14,0.09-0.18,0.29-0.55,0.28c-0.04-0.04,0-0.1,0-0.1
						c0,0.1-0.58,0.13-0.25,0.35c-1.01-0.62-2.82,0.04-3.7-0.48c-0.71,0.07-1.58,0.13-2.22,0.14c0.04-0.06,0-0.1,0.12-0.08
						c-0.89-0.18-0.55,0.57-1.57,0.36c-0.52-0.32,0.54-0.17,0.22-0.29c-0.14-0.65-1.23,0.09-1.91-0.29l0.17-0.04
						c-0.52-0.22-1.28,0.25-2.13,0.2c0,0,0.04-0.06,0-0.1c-0.59,0.33-1.69,0.44-2.52,0.53c0.26-0.25,0.37-0.13,0.22-0.39
						c-0.37,0.04,0.11,0.41-0.63,0.49c-0.24-0.14-0.77-0.26-0.84-0.54l0.69-0.01c-0.36-0.36-0.9,0.01-1.27-0.05l0.05-0.16
						c-1.07,0.05-1.08,0.44-2.22,0.42l0.12,0.12c-0.63,0.39-0.52-0.22-1.15,0.07l-0.19-0.39c-0.41,0.1-1.45,0.38-2.19,0.46
						c0.42-0.29,1.29-0.44,1.82-0.62c-0.41,0-1.39,0.03-1.6,0.22c0.16-0.04,0.37-0.13,0.54-0.07c-0.5,0.31-1.16,0.46-1.98,0.46
						c0.14-0.77-2.13-0.19-2.72-0.79c-1.44,0.28-2.86-0.12-4.54-0.08c0.6,0.6-0.49,0.02-0.39,0.63c-0.39,0.04-0.54,0.03-0.58-0.01
						l-1.19-0.37c-0.28-0.18,0.37-0.13,0.34-0.27c-0.86-0.05-0.36-0.26-0.93-0.42c0.12,0.22-0.3,0.31-0.79,0.23l0.69,0.28
						c-1.2,0.33-1.04-0.51-2.24-0.19l0.38-0.19c-0.62,0.11-2.29,0-2.89,0.49c-0.11-0.07-0.25-0.24,0.02-0.28
						c-1.48-0.07-3.3,0.52-4.45,0.22l0.11-0.15c-0.28,0.04-0.48,0.28-0.83,0.13c0.02-0.06,0.11-0.15-0.02-0.16
						c-0.15,0.05-0.73,0.26-1.1,0.17l0.31-0.17c-1.44-0.2-2.22,0.41-3.43,0.51c0-0.44-1.13-0.58-1.7-0.65l0.02-0.06
						c-1.68-0.05-2.86,0.36-4.41,0.54c-0.97-0.48-3.27-0.2-4.83-0.47c0.24,0.08-0.04,0.34-0.31,0.39c-0.36-0.09-1.01,0.31-0.95-0.1
						l0.13,0.01c-0.27-0.4-1.02-0.29-1.61-0.3l-0.1,0.53c-1.53-0.77-4.01,0.28-4.84-0.41c-0.37,0.13-0.83,0.13-1.19,0.26l0.02-0.28
						c-1.02-0.07-1.53-0.11-2.8-0.04l0.26-0.2c-0.71-0.02-0.9,0.82-1.56,0.83l-0.2-0.42c-1.24,0.01-2.5-0.36-3.73,0.02
						c0.02-0.06,0.06-0.18,0.26-0.2c-0.59-0.01-2.27-0.29-2.05,0.29c-0.01-0.38-1.28-0.04-1.96,0.13l0.1-0.28
						c-0.57,0.36-0.59,0.45-1.38,0.55c-0.19-0.04-0.16-0.22,0.08-0.15c-0.63-0.15-0.49,0.26-1.25,0.12l0.28-0.18
						c-0.64-0.02-0.59,0.07-0.95,0.28c-0.4,0.11-1.22-0.07-1.32-0.32c-0.09,0.15-0.44,0.36-0.82,0.29c-0.05-0.1,0.09-0.15,0.16-0.18
						c-1.08-0.19-1.6,0.32-2.34,0.05c-0.02-0.09-0.06-0.14-0.12-0.17c0.85,0.01,1.54,0.02,1.48,0.04c0-0.26-0.69-0.3-0.14-0.66
						c-0.55,0.19-1.5,0.61-2.18,0.49c-0.03-0.02-0.06-0.05-0.09-0.09l0.07-0.03c-0.16-0.03-0.29,0-0.43,0.04
						c-0.21-0.04-0.35-0.07-0.56-0.08c-0.08-0.21-0.79-0.11-1.14-0.12c0.03,0.28-0.42,0.24,0,0.47c-0.05-0.02,0.07-0.03,0.29-0.05
						c0.05-0.01,0.11-0.01,0.15-0.03c-0.01,0.01-0.01,0.02-0.02,0.02c0.23-0.01,0.52-0.01,0.86-0.02c-0.27,0.14-0.56,0.26-0.94,0.11
						c-0.18,0.18-0.37,0.37-0.48,0.45c-0.47-0.39-1.38-0.6-1.51-0.85c-1.05,0.16-2.48,0.1-3.14,0.63c-0.3,0.07-0.34-0.15-0.46-0.23
						c0.17-0.05,0.38-0.04,0.47-0.12c-0.6,0.14-1.77,0.05-1.91,0.42c-0.75-0.17,0.42-0.34-0.61-0.28l0.14-0.11
						c-2.04-0.59-3.31,0.94-5.57,0.18c0.16,0.05,0.23,0.07,0.27,0.13c-2.57-0.33-5.3,0.31-7.84-0.22c-0.72-0.11-0.8,0.13-1.24,0.31
						l-0.16-0.3l-0.75,0.35c-1.07,0.26-1.85-0.74-3.2-0.26l0.17,0.2c-0.49-0.04-1.54,0.12-1.46-0.11c-0.05,0.04-0.16,0.21-0.35,0.11
						l-0.01-0.16l-1.19,0.27c-0.92-0.11,0.14-0.63-1.21-0.66c-0.5,0.06-1.43,0.46-1.24,0.57c0.2,0.01,0.52,0.1,0.53,0.26L0.7,35.38
						c-0.08,0.47-0.44,0.94,0.69,1.27l0.78-0.28l0.25,0.23L1.77,36.6c0.37,0.21,0.61,0.02,0.88-0.1c0.06,0.12,0.17,0.2,0.33,0.25
						l0.77-0.44c0.09,0.18-0.35,0.36,0.17,0.46c0.36-0.21-0.35-0.41,0.25-0.54c0.38,0.21,0.27,0.38,0.71,0.2
						c0.06,0.12-0.03,0.2-0.21,0.25c0.39-0.14,1.04-0.06,1.24-0.31c0.39,0.26,1.32-0.07,1.29,0.37c0.12-0.11,0.69-0.35,1.05-0.36
						c-0.66,0.53,1.35,0.03,1.17,0.6c0.49-0.47,1.76-0.21,2.62-0.47c-0.05,0.04-0.14,0.11-0.22,0.09c0.49,0.04,0.63,0.18,0.94,0.27
						c0.06-0.39,0.82-0.48,1.23-0.72c0.6,0.38-0.36,0.46-0.17,0.82c-0.03-0.32,1.03-0.32,0.83-0.58c0.46,0.23,0.39,0.11,0.63,0.44
						c0.08-0.49,0.42-0.08,0.8-0.38c0.66,0.24,0.17,0.46,0.89,0.31C17.31,36.89,16.67,37.06,16.67,37.06z M33.89,36.21
						C33.89,36.22,33.89,36.22,33.89,36.21c-0.15,0.01-0.27,0.02-0.36,0.02C33.61,36.23,33.71,36.23,33.89,36.21z M35.33,36.21
						c-0.18-0.01-0.4-0.01-0.63-0.01c-0.05-0.1,0-0.2,0.15-0.19C34.78,36.07,35.12,36.13,35.33,36.21z M32.27,34.26
						c0.23-0.04,0.31,0.02,0.34,0.07c-0.11,0-0.23,0.01-0.4,0.03c-0.01,0.01-0.02,0.02-0.03,0.03C32.2,34.35,32.23,34.3,32.27,34.26
						z"/>
					<path class="st0" d="M31.86,34.63c-0.03,0.01-0.05,0.02-0.09,0.02c0.05,0.02,0.09,0.05,0.14,0.06
						c0.03-0.03,0.06-0.06,0.08-0.09C31.94,34.63,31.9,34.63,31.86,34.63z"/>
					<path class="st0" d="M163.01,35.05l-0.03-0.01c0.03,0.01,0.05,0.02,0.06,0.04C163.03,35.07,163.03,35.06,163.01,35.05z"/>
					<polygon class="st0" points="55.31,36.75 55.31,36.68 55.18,36.74 					"/>
					<path class="st0" d="M170.98,36.01c0.02,0.02,0.05,0.05,0.1,0.07C171.08,36.07,171.04,36.04,170.98,36.01z"/>
					<path class="st0" d="M174.42,36.08l0.49,0.1C174.7,36.12,174.55,36.09,174.42,36.08z"/>
					<path class="st0" d="M177.07,36.21c0.03-0.05,0.04-0.09,0.05-0.12c0,0,0,0-0.01,0L177.07,36.21z"/>
					<path class="st0" d="M134.99,36.54c-0.04,0-0.07,0.01-0.1,0.01C134.65,36.61,134.81,36.59,134.99,36.54z"/>
					<path class="st0" d="M147.51,35.89c-0.13,0.05-0.26,0.1-0.4,0.13C147.33,36.04,147.51,36.05,147.51,35.89z"/>
					<path class="st0" d="M121.01,36.88C121.01,36.88,121.01,36.88,121.01,36.88c-0.03,0-0.05,0-0.08,0L121.01,36.88z"/>
					<path class="st0" d="M146.53,36.02c0.22,0.06,0.41,0.04,0.58,0C146.93,36,146.71,35.97,146.53,36.02z"/>
					<path class="st0" d="M188.54,36.34l0.13,0.01c0-0.02,0.01-0.03,0.02-0.05L188.54,36.34z"/>
					<path class="st0" d="M188.68,36.31l0.14-0.03C188.76,36.28,188.7,36.28,188.68,36.31z"/>
					<path class="st0" d="M189.12,36.2l-0.3,0.07C188.93,36.28,189.05,36.28,189.12,36.2z"/>
					<path class="st0" d="M185.04,36.21l-0.04,0.1C185.02,36.29,185.03,36.26,185.04,36.21z"/>
					<path class="st0" d="M183.97,36.24c0.25,0.02,0.64,0.22,0.99,0.15l0.03-0.08C184.83,36.47,184.21,36.07,183.97,36.24z"/>
					<path class="st0" d="M179.53,34.98l0.89,0.08c-0.16-0.11-0.36-0.25,0.04-0.28C179.34,34.46,180.7,35.03,179.53,34.98z"/>
					<path class="st0" d="M176.76,34.82c0.48-0.05-0.01-0.16,0.02-0.22C176.48,34.7,176.4,34.73,176.76,34.82z"/>
					<path class="st0" d="M156.77,34.82l0.05-0.26C156.45,34.6,156.82,34.67,156.77,34.82z"/>
					<polygon class="st0" points="152.95,36.15 153.31,36.3 153.48,36.07 					"/>
					<polygon class="st0" points="150.69,34.32 150.85,34.29 150.24,34.38 					"/>
					<path class="st0" d="M117.12,34.41l0.11,0.31C117.48,34.67,117.53,34.32,117.12,34.41z"/>
					<path class="st0" d="M102.62,34.73c-0.16-0.16-0.57-0.26-0.82-0.1C102.13,34.65,102.46,34.78,102.62,34.73z"/>
					<polygon class="st0" points="59.16,34.22 59.45,34.12 58.9,34.2 					"/>
				</g>
			</g>
		</g>
	</g>
</g>
<g class="st1">
	<path class="st2" d="M17.56,28.54c-0.15,0.2-0.29,0.68-0.42,1.44c-0.2,0.08-0.54,0.14-1.03,0.19c-0.48,0.05-1.06,0.06-1.75,0.04
		c-0.1,0-0.23,0.01-0.4,0.04c-0.17,0.03-0.34,0.05-0.51,0.08c-0.18,0.03-0.35,0.05-0.51,0.08c-0.17,0.03-0.31,0.04-0.44,0.04
		c-0.18,0-0.56-0.16-1.14-0.49c-0.13-0.3-0.23-0.72-0.32-1.25c-0.09-0.53-0.13-1.18-0.13-1.94c-0.03-1.22-0.03-2.16-0.02-2.83
		c0.01-0.67,0.03-1.06,0.06-1.16c0-0.08,0.01-0.18,0.04-0.32c0.02-0.14,0.06-0.31,0.11-0.51c0.02-0.18,0.04-0.34,0.06-0.49
		c0.01-0.15,0.02-0.28,0.02-0.38c0-0.28-0.02-0.58-0.06-0.89c-0.04-0.32-0.1-0.68-0.17-1.08c-0.28-0.4-0.61-0.71-0.99-0.93
		c-0.38-0.21-0.8-0.31-1.25-0.29c-0.25-0.02-0.49,0.02-0.72,0.13c-0.23,0.11-0.43,0.25-0.61,0.42C7.19,18.58,7.04,18.77,6.9,19
		c-0.14,0.23-0.22,0.46-0.25,0.68l0.15,0.61c-0.03-0.02-0.06-0.04-0.11-0.04H6.65c-0.08,0-0.16,0.03-0.25,0.09
		c-0.09,0.06-0.18,0.13-0.27,0.21c-0.09,0.08-0.16,0.15-0.21,0.23c-0.05,0.08-0.09,0.13-0.11,0.15c0.02,0,0.07,0.04,0.13,0.11
		c0.06,0.08,0.13,0.15,0.21,0.23c0.08,0.08,0.16,0.15,0.25,0.21c0.09,0.06,0.17,0.1,0.25,0.1h0.04c0.05,0,0.09-0.01,0.11-0.04
		c-0.03,0.23-0.03,0.65,0,1.25c0.05,0.48,0,0.89-0.15,1.22c0.05,0.2,0.1,0.4,0.13,0.59s0.07,0.37,0.09,0.55
		c-0.03,0.33-0.1,0.71-0.23,1.14c0.05,0.23,0.1,0.49,0.13,0.8c0.04,0.3,0.06,0.62,0.06,0.95s-0.02,0.65-0.06,0.95
		c-0.04,0.3-0.08,0.57-0.13,0.8c-0.2,0.23-0.41,0.39-0.63,0.49c-0.22,0.1-0.48,0.14-0.78,0.11c-0.13,0-0.29-0.01-0.49-0.02
		c-0.2-0.01-0.41-0.04-0.63-0.08c-0.22-0.04-0.43-0.07-0.65-0.09c-0.22-0.03-0.39-0.04-0.51-0.04c-0.43,0-0.79,0.08-1.06,0.23H1.79
		c-0.51,0-0.9-0.16-1.18-0.49c-0.03-0.08-0.08-0.2-0.17-0.38c-0.09-0.18-0.22-0.43-0.4-0.76c0.15-0.1,0.23-0.2,0.23-0.3
		c0-0.08-0.04-0.18-0.11-0.32C0.08,28,0.04,27.89,0.04,27.82s0.06-0.18,0.19-0.3L0.11,27.4c0.08-2.2,0.15-3.84,0.23-4.9
		c0.08-1.06,0.11-1.57,0.11-1.52C0.41,20.55,0.39,20,0.4,19.34s-0.03-1.42-0.13-2.28c0-0.76-0.01-1.45-0.04-2.07
		c-0.03-0.62-0.03-1.15,0-1.58c-0.03-1.01-0.01-1.89,0.04-2.62c0.05-0.73,0.1-1.42,0.15-2.05C0.37,8.46,0.32,8.15,0.29,7.79
		C0.25,7.44,0.24,7.06,0.27,6.65C0.24,6.3,0.25,5.87,0.29,5.36s0.08-1.09,0.13-1.75C0.16,3.31,0.02,2.95,0,2.55
		C0,2.47,0.01,2.36,0.04,2.2c0.02-0.15,0.05-0.3,0.08-0.46c0.02-0.15,0.05-0.3,0.08-0.44c0.02-0.14,0.02-0.26,0-0.36
		c0.2-0.3,0.48-0.53,0.84-0.68c0.35-0.15,0.81-0.23,1.37-0.23c0.05,0,0.18,0.01,0.38,0.02c0.2,0.01,0.49,0.03,0.87,0.06
		c0.28,0.03,0.53,0.04,0.74,0.04c0.21,0,0.41-0.02,0.59-0.08L6.19,0.3l0.53,0.8L6.8,6.27C6.65,6.4,6.48,6.52,6.29,6.65
		C6.1,6.78,5.99,6.93,5.97,7.11L6.19,7.3c0.02-0.05,0.08-0.1,0.15-0.13c0.08-0.04,0.16-0.06,0.27-0.06H6.8
		C6.67,7.31,6.61,7.5,6.61,7.68c0,0.08,0.01,0.17,0.02,0.27c0.01,0.1,0.04,0.2,0.08,0.3c0.04,0.1,0.07,0.2,0.1,0.3
		c0.02,0.1,0.04,0.19,0.04,0.27c0,0.2-0.08,0.38-0.23,0.53c0.13,0.23,0.27,0.46,0.42,0.68c0.15,0.23,0.31,0.43,0.47,0.61
		c0.16,0.18,0.35,0.32,0.57,0.44c0.21,0.11,0.48,0.17,0.78,0.17c0.1,0,0.23-0.01,0.4-0.04c0.16-0.03,0.35-0.05,0.55-0.08
		c0.2-0.03,0.39-0.05,0.57-0.08s0.32-0.04,0.42-0.04c0.18,0,0.35,0.02,0.51,0.06c0.16,0.04,0.31,0.08,0.44,0.13l0.65-0.61
		c-0.15-0.28-0.35-0.42-0.61-0.42c-0.08,0-0.17,0.02-0.27,0.06c-0.1,0.04-0.22,0.09-0.34,0.15c-0.13,0.06-0.25,0.11-0.36,0.15
		c-0.11,0.04-0.2,0.06-0.25,0.06c0.1-0.15,0.2-0.33,0.29-0.53c0.09-0.2,0.17-0.46,0.25-0.76c0.05-0.23,0.09-0.46,0.13-0.68
		c0.04-0.23,0.1-0.46,0.17-0.68c-0.15-0.2-0.27-0.41-0.34-0.63c-0.08-0.21-0.11-0.44-0.11-0.67c0-0.33,0.09-0.65,0.27-0.95
		c-0.23-1.72-0.34-2.71-0.34-2.96c0-0.53,0.06-1.01,0.19-1.42c0.13-0.42,0.29-0.75,0.49-1.01c0.43-0.13,0.86-0.2,1.29-0.23h1.44
		c0.1,0.08,0.2,0.13,0.29,0.15c0.09,0.03,0.2,0.05,0.32,0.08c0.2,0.03,0.43,0.03,0.68,0c0.18-0.03,0.32-0.04,0.44-0.06
		c0.11-0.01,0.2-0.02,0.25-0.02c0.15,0,0.3,0.03,0.46,0.08c0.15,0.05,0.29,0.13,0.42,0.23c0.13,0.1,0.23,0.22,0.3,0.36
		c0.08,0.14,0.11,0.29,0.11,0.44c-0.05,2.94-0.1,5.48-0.15,7.62c-0.05,2.14-0.05,3.79,0,4.96c0,0.18-0.02,0.39-0.06,0.65
		s-0.08,0.57-0.13,0.95c-0.03,0.35-0.04,0.64-0.06,0.85c-0.01,0.22-0.01,0.3,0.02,0.25L17.56,28.54z M0.87,19.68H0.61l0.27,0.19
		V19.68z M1.44,5.24H1.06l0.38,0.23V5.24z M1.79,15.24H1.44v0.3h0.34V15.24z M2.51,5.24H2.43c-0.05,0-0.18,0.08-0.38,0.23l0.23,0.19
		c0.15-0.2,0.23-0.32,0.23-0.34V5.24z M2.51,22.91c0-0.02-0.08-0.14-0.23-0.34l-0.23,0.19c0.2,0.15,0.33,0.23,0.38,0.23h0.08V22.91z
		 M3.95,17.63c-0.08-0.05-0.15-0.1-0.21-0.13c-0.06-0.04-0.13-0.06-0.21-0.06c0.05,0-0.01,0.03-0.19,0.09
		c-0.18,0.06-0.46,0.16-0.84,0.29h0.72c0.18,0,0.32-0.01,0.42-0.04C3.75,17.76,3.85,17.71,3.95,17.63z M3.5,9.58H3.08L3.5,9.77V9.58
		z M3.5,19.27H3.34l0.15,0.23V19.27z M4.79,16.38c-0.15-0.28-0.35-0.42-0.61-0.42c-0.33,0-0.56,0.14-0.68,0.42
		c0.28,0.18,0.51,0.27,0.68,0.27C4.28,16.64,4.48,16.56,4.79,16.38z M3.72,20.52H3.5l0.23,0.19V20.52z M4.33,24.62
		c-0.03-0.13-0.1-0.19-0.23-0.19c-0.28,0-0.42,0.11-0.42,0.34l0.04,0.08h0.27C4.17,24.85,4.28,24.78,4.33,24.62z M4.98,12.65
		c-0.15-0.13-0.29-0.26-0.42-0.4c-0.13-0.14-0.25-0.21-0.38-0.21c-0.15,0.2-0.26,0.36-0.32,0.47c-0.06,0.11-0.09,0.16-0.09,0.13
		c0,0.13,0.06,0.2,0.19,0.23h0.57C4.75,12.88,4.9,12.81,4.98,12.65z M4.79,11.21c-0.1-0.15-0.25-0.23-0.46-0.23
		c-0.18,0-0.3,0.08-0.38,0.23l0.23,0.23h0.19C4.55,11.44,4.69,11.36,4.79,11.21z M4.52,21.74H4.18l0.15,0.42
		c0.15-0.2,0.23-0.32,0.23-0.34L4.52,21.74z M4.64,8.85h-0.3v0.3h0.3V8.85z M6.65,14.93c-0.08-0.03-0.2-0.06-0.36-0.09
		c-0.17-0.04-0.37-0.1-0.63-0.17c-0.23-0.05-0.42-0.1-0.57-0.13c-0.15-0.04-0.3-0.06-0.46-0.06c-0.05,0-0.1,0-0.15,0
		c-0.03,0-0.08,0.01-0.15,0.04c0.25,0.2,0.52,0.36,0.8,0.47c0.28,0.11,0.6,0.17,0.95,0.17h0.34L6.65,14.93z M4.79,18.77
		c0-0.03-0.09-0.14-0.27-0.34l-0.19,0.42h0.46V18.77z M4.98,23.18c-0.05-0.15-0.19-0.21-0.42-0.19H4.33l0.46,0.42L4.98,23.18z
		 M5.62,10.41c-0.1-0.15-0.25-0.23-0.46-0.23H4.98l0.38,0.42L5.62,10.41z M5.81,8.36C5.76,8.21,5.65,8.13,5.47,8.13
		c-0.15,0-0.25,0.08-0.3,0.23l0.19,0.19h0.08C5.46,8.55,5.59,8.49,5.81,8.36z M5.62,13.64c0-0.03-0.09-0.14-0.27-0.34l-0.19,0.19
		c0.2,0.15,0.33,0.23,0.38,0.23h0.08V13.64z M6.19,19.08c-0.08-0.15-0.2-0.23-0.38-0.23H5.62l0.57,0.42V19.08z M6.19,12.46H6.08
		c-0.03,0-0.06,0.02-0.1,0.06c-0.04,0.04-0.09,0.08-0.17,0.13l0.15,0.23c0.15-0.18,0.23-0.29,0.23-0.34V12.46z M7.03,17.4
		c-0.18-0.15-0.43-0.23-0.76-0.23c-0.3,0-0.46,0.15-0.46,0.46c0.1,0.13,0.2,0.19,0.3,0.19c0.08,0,0.16-0.02,0.25-0.06
		c0.09-0.04,0.17-0.08,0.25-0.13c0.08-0.05,0.15-0.1,0.23-0.13C6.92,17.46,6.98,17.43,7.03,17.4z M6.42,5.85
		C6.19,5.73,6.07,5.66,6.04,5.66H5.97l0.23,0.42L6.42,5.85z M8.25,16.61c-0.73-0.51-1.19-0.76-1.37-0.76c-0.2,0-0.43,0.11-0.68,0.34
		c0.05,0.23,0.18,0.34,0.38,0.34c0.08,0,0.22-0.06,0.44-0.17c0.21-0.11,0.39-0.17,0.51-0.17c0.25,0,0.44,0.2,0.57,0.61L8.25,16.61z
		 M6.42,26.3H6.19l0.23,0.19V26.3z M6.84,10.79H6.76c-0.15,0-0.27,0.08-0.34,0.23l0.23,0.19l0.38-0.38L6.84,10.79z M9.27,11.86
		c-0.08-0.05-0.15-0.08-0.23-0.08c-0.23,0-0.56,0.24-0.99,0.72c-0.43,0.46-0.85,0.65-1.25,0.57c0.08,0.15,0.24,0.23,0.49,0.23
		l0.15-0.04c0.53-0.18,0.96-0.39,1.27-0.65C9.04,12.36,9.22,12.11,9.27,11.86z M7.83,11.44l-0.19,0.42h0.08
		c0.05,0,0.18-0.08,0.38-0.23L7.83,11.44z M9.5,15.35c-0.66-0.43-1.09-0.63-1.29-0.61c-0.2,0-0.39,0.06-0.57,0.19l0.19,0.23
		c0.08,0,0.16,0.03,0.27,0.08c0.1,0.05,0.21,0.09,0.32,0.13c0.11,0.04,0.23,0.08,0.34,0.13c0.11,0.05,0.21,0.08,0.28,0.08
		c0.15,0,0.32-0.08,0.49-0.23H9.5z M10.68,13.49c-0.08-0.02-0.15-0.04-0.23-0.04c-0.08,0-0.15,0-0.23,0c-0.63,0-0.95,0.18-0.95,0.53
		c0,0.03,0.09,0.14,0.27,0.34c0.05,0.03,0.1,0.04,0.15,0.04s0.1,0,0.15,0c0.38,0,0.67-0.08,0.87-0.23c0.2-0.15,0.35-0.37,0.46-0.65
		H10.68z M10.56,12.65c-0.13-0.15-0.32-0.23-0.57-0.23c-0.2,0-0.35,0.08-0.46,0.23l0.19,0.23h0.46
		C10.39,12.88,10.51,12.81,10.56,12.65z M9.99,16.07H9.73v0.3h0.27V16.07z M12.01,16.8c-0.13-0.13-0.3-0.19-0.53-0.19
		c-0.38,0-0.63,0.13-0.76,0.38c-0.03,0.03,0.2,0.04,0.68,0.04C11.68,17.02,11.88,16.95,12.01,16.8z M11.4,15.77
		c-0.03-0.03-0.06-0.06-0.09-0.09s-0.09-0.08-0.15-0.13c-0.06-0.05-0.12-0.09-0.17-0.13s-0.1-0.06-0.15-0.06h-0.11l0.46,0.61
		L11.4,15.77z M12.84,18.24c-0.05,0.03-0.14,0.04-0.27,0.04c-0.05,0-0.11-0.01-0.19-0.04c-0.08-0.02-0.15-0.06-0.23-0.09
		s-0.15-0.07-0.23-0.09s-0.14-0.04-0.19-0.04H11.7c-0.03,0-0.08,0.01-0.15,0.04c-0.1,0.18-0.15,0.32-0.15,0.42
		c0,0.05,0.04,0.08,0.11,0.08s0.2-0.02,0.36-0.06c0.16-0.04,0.27-0.06,0.32-0.06c0.18,0,0.3,0.08,0.38,0.23
		c0.18-0.18,0.27-0.3,0.27-0.38V18.24z M12.58,21.55c-0.1-0.28-0.32-0.42-0.65-0.42c-0.25,0-0.43,0.06-0.53,0.19
		c0.02,0,0.07,0.03,0.13,0.08c0.06,0.05,0.14,0.1,0.23,0.15c0.09,0.05,0.18,0.09,0.27,0.13s0.16,0.06,0.21,0.06
		C12.34,21.74,12.45,21.67,12.58,21.55z M12.2,22.76h-0.46l0.27,0.42c0.13-0.18,0.19-0.29,0.19-0.34V22.76z M12.27,25.76h-0.27v0.3
		h0.27V25.76z M13.19,11.21c-0.05-0.05-0.11-0.08-0.19-0.08c-0.3,0-0.57,0.17-0.8,0.49l0.19,0.23L13.19,11.21z M12.84,9.16
		c-0.2-0.15-0.34-0.23-0.42-0.23l-0.04,0.04l0.19,0.42L12.84,9.16z M13.19,16.8c-0.03-0.15-0.11-0.23-0.27-0.23
		c-0.13,0-0.24,0.08-0.34,0.23l0.27,0.19l0.08,0.04L13.19,16.8z M12.84,24.85h-0.27l0.27,0.19V24.85z M13.22,8.28
		c0-0.02-0.08-0.14-0.23-0.34l-0.15,0.19c0.13,0.15,0.23,0.23,0.3,0.23h0.04L13.22,8.28z M13.11,13.6h-0.27v0.3h0.27V13.6z
		 M13.64,14.74c-0.05-0.15-0.17-0.23-0.34-0.23c-0.15,0-0.25,0.08-0.3,0.23l0.19,0.19l0.11,0.04C13.33,14.97,13.44,14.9,13.64,14.74
		z M14.63,10.6c-0.1-0.15-0.28-0.23-0.53-0.23c-0.33,0-0.54,0.15-0.65,0.46c0.13,0.13,0.24,0.19,0.34,0.19
		c0.13,0,0.28-0.06,0.46-0.19C14.43,10.7,14.55,10.63,14.63,10.6z M13.83,7.3l-0.19,0.23l0.19,0.19l0.19-0.19L13.83,7.3z
		 M13.83,20.71l-0.19,0.23l0.19,0.19l0.19-0.19L13.83,20.71z M14.29,12.65l-0.27,0.23l0.27,0.19l0.19-0.19L14.29,12.65z
		 M14.67,14.63c0-0.03-0.06-0.13-0.19-0.3c-0.15,0.05-0.23,0.15-0.23,0.3c0,0.15,0.08,0.25,0.23,0.3l0.15-0.19L14.67,14.63z
		 M14.97,20.6h-0.34v0.34h0.34V20.6z M15.77,22.69h-0.3v0.3h0.3V22.69z"/>
	<path class="st2" d="M37.35,20.56c-0.23,0.13-0.34,0.27-0.34,0.42c0,0.1,0.04,0.25,0.11,0.46c0.08,0.2,0.11,0.35,0.11,0.46
		c0,0.03-0.01,0.07-0.02,0.13c-0.01,0.06-0.01,0.13,0.02,0.21c-0.23,1.37-0.53,2.55-0.91,3.55c-0.38,1-0.8,1.79-1.25,2.38
		c-0.71,0.84-1.54,1.42-2.49,1.77c-0.95,0.34-2.12,0.5-3.51,0.47c-1.19,0.03-2.26-0.09-3.19-0.36c-0.94-0.27-1.72-0.6-2.36-1.01
		c-0.41-0.3-0.8-0.7-1.18-1.18c-0.38-0.48-0.71-1.01-0.99-1.6c-0.3-0.61-0.54-1.2-0.72-1.77c-0.18-0.57-0.3-1.09-0.38-1.58
		c-0.13-2.79-0.2-4.86-0.21-6.23s-0.06-2.09-0.13-2.17c0.02,0,0.06-0.57,0.1-1.71c0.04-1.14,0.15-2.91,0.32-5.32
		c0.08-0.84,0.22-1.53,0.44-2.09c0.21-0.56,0.54-1.06,0.97-1.52c0.2-0.71,0.53-1.31,0.97-1.81c0.44-0.49,1.07-0.89,1.88-1.2
		C25.83,0.29,27.26,0,28.88,0c1.44,0,2.73,0.22,3.86,0.65c1.13,0.43,2.07,1.13,2.83,2.09c-0.03,0.05-0.04,0.09-0.06,0.13
		c-0.01,0.04-0.02,0.1-0.02,0.17c0,0.08,0.04,0.18,0.11,0.3c0.08,0.13,0.16,0.25,0.27,0.36c0.1,0.11,0.2,0.23,0.3,0.34
		c0.1,0.11,0.16,0.21,0.19,0.28c0.1,0.33,0.2,0.71,0.29,1.14c0.09,0.43,0.17,0.94,0.25,1.52c0.1,1.34,0.2,2.64,0.29,3.88
		c0.09,1.24,0.16,2.45,0.21,3.61L37.35,20.56z M21.43,20.67h-0.3v0.3h0.3V20.67z M22.12,19.57c-0.05-0.15-0.18-0.23-0.38-0.23
		c-0.2,0-0.34,0.08-0.42,0.23l0.23,0.19h0.15C21.93,19.76,22.06,19.7,22.12,19.57z M22.12,15.96c-0.15-0.15-0.25-0.23-0.3-0.23
		l-0.08,0.04l0.19,0.38L22.12,15.96z M23.33,11.89c0-0.03-0.06-0.14-0.19-0.34c-0.15,0.03-0.23,0.13-0.23,0.3
		c0,0.13,0.08,0.23,0.23,0.3l0.19-0.23V11.89z M23.26,17.86h-0.3v0.3h0.3V17.86z M23.94,9.35c-0.1-0.08-0.17-0.13-0.21-0.17
		c-0.04-0.04-0.07-0.06-0.09-0.06l-0.11,0.04l0.23,0.38L23.94,9.35z M23.75,20.79h-0.23l0.23,0.19V20.79z M24.55,9.96
		c-0.23,0.03-0.49,0.19-0.8,0.49v0.11c0.02-0.05,0.08-0.09,0.17-0.13c0.09-0.04,0.18-0.08,0.28-0.11c0.1-0.04,0.18-0.08,0.25-0.11
		c0.06-0.04,0.1-0.09,0.1-0.17V9.96z M24.93,23.98c-0.1-0.15-0.29-0.23-0.57-0.23s-0.42,0.13-0.42,0.38c0,0.18,0.1,0.27,0.3,0.27
		h0.49c0.15-0.2,0.23-0.32,0.23-0.34L24.93,23.98z M24.55,19.15h-0.08c-0.23,0-0.34,0.11-0.34,0.34v0.08h0.23
		c0.13-0.2,0.19-0.32,0.19-0.34V19.15z M25.54,3.72c-0.13-0.15-0.29-0.23-0.49-0.23c-0.2,0-0.37,0.08-0.49,0.23
		c0.08,0.15,0.2,0.23,0.38,0.23c0.43,0,0.63-0.01,0.61-0.04V3.72z M25.65,19.27h-0.3v0.3h0.3V19.27z M25.54,15.96v0.19l0.19-0.19
		H25.54z M31.77,14.17c-0.05-0.08-0.1-0.13-0.15-0.17c-0.05-0.04-0.1-0.06-0.15-0.06c-0.08,0-0.17,0.03-0.29,0.08
		c-0.11,0.05-0.21,0.08-0.29,0.08c-0.23,0-0.34-0.14-0.34-0.42l0.19-0.34c-0.13-0.2-0.18-0.42-0.15-0.65c0-0.1,0.02-0.23,0.06-0.4
		c0.04-0.17,0.08-0.34,0.11-0.51c0.04-0.18,0.08-0.34,0.13-0.49c0.05-0.15,0.08-0.27,0.08-0.34l0.19,0.19l0.19-0.19l-0.19-0.19
		l-0.19,0.19c-0.28-0.28-0.42-0.59-0.42-0.95c0-0.1,0.01-0.22,0.04-0.36c0.02-0.14,0.05-0.29,0.08-0.46
		c0.02-0.17,0.05-0.32,0.08-0.48c0.02-0.15,0.04-0.27,0.04-0.34c0-0.25-0.07-0.51-0.21-0.78c-0.14-0.27-0.32-0.51-0.53-0.72
		c-0.22-0.21-0.45-0.39-0.7-0.53c-0.25-0.14-0.52-0.21-0.8-0.21c-0.61,0.03-1.05,0.42-1.33,1.18c-0.13,0.13-0.28,0.75-0.46,1.86V9.2
		c0,0.1,0.03,0.25,0.1,0.44c0.06,0.19,0.1,0.34,0.1,0.44c0,0.23-0.13,0.39-0.38,0.49c0.25,0.2,0.38,0.47,0.38,0.8
		c0,0.13-0.03,0.32-0.08,0.57c-0.05,0.25-0.08,0.46-0.08,0.61c0,0.25,0.05,0.46,0.15,0.61c-0.15,0.08-0.23,0.17-0.23,0.27
		c0,0.05,0.04,0.13,0.13,0.23c0.09,0.1,0.13,0.19,0.13,0.27c0,0.1-0.08,0.19-0.23,0.27c0.15,0.28,0.22,0.67,0.19,1.18
		c-0.05,0.58-0.05,0.99,0,1.22c-0.15,0.13-0.23,0.28-0.23,0.46c0,0.13,0.04,0.3,0.11,0.51c0.08,0.22,0.11,0.37,0.11,0.48
		c0,0.25-0.13,0.44-0.38,0.57c-0.18-0.15-0.32-0.27-0.42-0.34c-0.1-0.08-0.18-0.11-0.23-0.11c-0.03,0-0.05,0-0.08,0
		c-0.03,0-0.06,0.01-0.11,0.04v0.19c0.2,0.15,0.4,0.28,0.61,0.38c0.13,0,0.2-0.05,0.23-0.15l0.38,0.38v0.23
		c0,0.15-0.06,0.28-0.19,0.38c0.13,0.15,0.19,0.42,0.19,0.8v0.8c-0.15,0.2-0.23,0.38-0.23,0.53c0,0.08,0.03,0.18,0.09,0.3
		c0.06,0.13,0.14,0.27,0.23,0.42c0.09,0.15,0.16,0.3,0.23,0.44c0.06,0.14,0.1,0.26,0.1,0.36l0.04,0.15
		c0.23,0.48,0.52,0.84,0.87,1.08c0.35,0.24,0.79,0.36,1.29,0.36c0.08,0,0.14,0,0.19,0c0.08,0,0.14-0.01,0.19-0.04
		c-0.13-0.2-0.19-0.38-0.19-0.53c0.03-0.1,0.08-0.23,0.17-0.4c0.09-0.17,0.2-0.34,0.32-0.53c0.13-0.19,0.24-0.4,0.34-0.63
		c0.1-0.23,0.16-0.46,0.19-0.68c-0.05-0.96-0.08-1.71-0.08-2.24c0-0.53-0.05-0.92-0.15-1.18c0.15-0.1,0.23-0.23,0.23-0.38
		c0-0.1-0.03-0.23-0.1-0.38c-0.06-0.15-0.09-0.27-0.09-0.34c0-0.15,0.05-0.25,0.15-0.3l-0.19-0.23V16.8c0-0.25,0.06-0.39,0.19-0.42
		l-0.19-0.23c-0.03-0.08-0.04-0.15-0.04-0.23c0-0.08,0-0.17,0-0.27c0.02-0.53,0.11-0.92,0.27-1.16c0.15-0.24,0.39-0.36,0.72-0.36
		c0.02,0,0.06,0,0.11,0C31.67,14.14,31.72,14.15,31.77,14.17z M25.73,6.95v0.19l0.23-0.19H25.73z M26.33,21.96
		c-0.05,0.03-0.18-0.04-0.38-0.19l-0.23,0.42c0.2,0.13,0.32,0.19,0.34,0.19h0.08c0.15-0.18,0.23-0.29,0.23-0.34L26.33,21.96z
		 M26.03,25.27h-0.3v0.3h0.3V25.27z M26.26,13.45h-0.3v0.3h0.3V13.45z M26.75,6.69c0-0.05-0.06-0.16-0.19-0.34l-0.23,0.19l0.3,0.23
		l0.11-0.04V6.69z M27.36,25.38c-0.08,0.05-0.22-0.01-0.42-0.19l0.42,0.38V25.38z M27.66,4.64h-0.3v0.3h0.3V4.64z M28.65,26.68h-0.3
		v0.3h0.3V26.68z M28.84,2.43h-0.3v0.3h0.3V2.43z M29.34,4.52c-0.05-0.1-0.11-0.15-0.19-0.15c-0.2,0.13-0.41,0.25-0.61,0.38
		c0.02,0.1,0.1,0.15,0.23,0.15L29.34,4.52z M29.75,25.99c-0.1-0.15-0.27-0.23-0.49-0.23c-0.2,0-0.37,0.08-0.49,0.23l0.19,0.19h0.46
		C29.61,26.18,29.73,26.12,29.75,25.99z M30.17,27.78h-0.42l0.42,0.23V27.78z M30.74,6.35l-0.19-0.19l0.19,0.38V6.35z M31.05,25.27
		h-0.3v0.3h0.3V25.27z M31.16,23.98l-0.19,0.42l1.18-0.42H31.16z M32.15,4.94c-0.03-0.15-0.1-0.23-0.23-0.23
		c-0.05,0-0.11,0.03-0.17,0.08c-0.06,0.05-0.12,0.1-0.17,0.15c-0.05,0.05-0.1,0.09-0.13,0.13c-0.04,0.04-0.07,0.06-0.1,0.06h0.8
		V4.94z M32.15,9.16c-0.1,0.03-0.2-0.01-0.3-0.11c-0.1-0.1-0.2-0.2-0.3-0.3l-0.19,0.19c0.3,0.3,0.52,0.46,0.65,0.46
		c0.02,0,0.05,0,0.08,0c0.02,0,0.05-0.01,0.08-0.04V9.16z M31.84,15.85h-0.3v0.3h0.3V15.85z M32.87,21.09h-0.3v0.27h0.3V21.09z
		 M32.76,25.76l-0.19,0.23l0.19,0.19l0.19-0.19L32.76,25.76z M33.36,6.95c-0.05-0.15-0.15-0.23-0.3-0.23s-0.25,0.08-0.3,0.23
		c0.1,0.13,0.21,0.19,0.34,0.19h0.27V6.95z M33.17,8.55l-0.23,0.19l0.23,0.19l0.19-0.19L33.17,8.55z M33.17,19.99h-0.23l0.23,0.19
		V19.99z M33.48,22.69h-0.3v0.3h0.3V22.69z M33.78,5.85c0-0.05-0.08-0.15-0.23-0.3l-0.19,0.19l0.3,0.23l0.08-0.04L33.78,5.85z
		 M33.86,10.45h-0.3v0.3h0.3V10.45z M34.58,15.16h-0.23l0.23,0.19V15.16z M35.26,8.25h-0.3v0.3h0.3V8.25z M35.57,13.68l-0.19-0.34
		l-0.23,0.23c0.1,0.08,0.17,0.13,0.21,0.15c0.04,0.03,0.07,0.04,0.09,0.04h0.11V13.68z M36.18,17.18c-0.08-0.15-0.22-0.23-0.42-0.23
		h-0.61c0.08,0.2,0.32,0.3,0.72,0.3C36.02,17.25,36.12,17.23,36.18,17.18z M36.06,20.06h-0.3v0.3h0.3V20.06z"/>
	<path class="st2" d="M56.2,28.73c0,0.56-0.18,0.97-0.53,1.24c-0.35,0.27-0.86,0.4-1.52,0.4c-0.18,0-0.39-0.01-0.65-0.04
		c-0.25-0.02-0.56-0.08-0.91-0.15c-0.33-0.08-0.63-0.13-0.91-0.17c-0.28-0.04-0.52-0.03-0.72,0.02l-8.66,0.34
		c-0.08-0.13-0.18-0.19-0.3-0.19c-0.08,0-0.19,0.04-0.34,0.13c-0.15,0.09-0.27,0.13-0.34,0.13s-0.23-0.11-0.48-0.32
		c-0.24-0.21-0.6-0.53-1.08-0.93c0.1-1.95,0.18-3.65,0.25-5.11c0.06-1.46,0.07-2.58,0.02-3.36c0.02-0.41,0.05-0.77,0.08-1.08
		c0.02-0.32,0.09-0.59,0.19-0.82c-0.05-1.22-0.09-2.39-0.11-3.51c-0.03-1.13-0.04-2.21-0.06-3.25c-0.01-1.04-0.02-2.04-0.02-3
		s-0.03-1.89-0.08-2.77c0-0.25-0.01-0.56-0.02-0.93c-0.01-0.37-0.04-0.82-0.1-1.35c-0.03-0.51-0.04-0.95-0.06-1.33
		c-0.01-0.38-0.01-0.68,0.02-0.91c-0.05-0.68,0.35-1.24,1.22-1.67c0.13-0.02,0.25-0.04,0.38-0.04c0.13,0,0.27,0,0.42,0
		c0.23,0.03,0.51,0.04,0.85,0.04c0.34,0,0.74,0.03,1.2,0.08c0.48,0.05,0.89,0.08,1.23,0.09c0.34,0.01,0.63,0.02,0.85,0.02
		c0.43,0,0.71,0.24,0.84,0.72c0.02,0.05,0.04,0.44,0.04,1.18c0,0.33,0.08,0.61,0.23,0.84c-0.13,0.89-0.22,1.65-0.29,2.28
		c-0.06,0.63-0.09,1.14-0.09,1.52c0.02,0.28,0.04,0.55,0.06,0.82c0.01,0.27,0.03,0.51,0.06,0.74l-0.3,0.42l0.3,11.21
		c-0.13,0.15-0.19,0.3-0.19,0.46c0,0.13,0.04,0.29,0.11,0.49c0.08,0.2,0.11,0.36,0.11,0.46c0,0.2-0.08,0.36-0.23,0.46
		c0.15,0.18,0.23,0.42,0.23,0.72c0,0.3-0.08,0.56-0.23,0.76c0.38,0.43,0.76,0.75,1.14,0.97s0.76,0.3,1.14,0.25l5.21-0.42
		c0.18,0,0.37,0.04,0.59,0.11c0.21,0.08,0.42,0.17,0.63,0.29c0.2,0.11,0.38,0.25,0.53,0.4c0.15,0.15,0.25,0.3,0.3,0.46
		c-0.15,0.3-0.23,0.67-0.23,1.1c0,0.13,0.01,0.29,0.02,0.49c0.01,0.2,0.03,0.41,0.06,0.63c0.02,0.22,0.06,0.42,0.09,0.63
		C56.18,28.44,56.2,28.6,56.2,28.73z M41.46,17.1c0.08-0.03,0.06-0.04-0.04-0.04s-0.28,0-0.53,0c-0.23,0-0.38,0.08-0.46,0.23
		l0.23,0.23h0.15c0.05,0,0.13-0.04,0.25-0.11C41.17,17.33,41.31,17.23,41.46,17.1z M42.71,14.17c-0.05-0.08-0.14-0.11-0.27-0.11
		c-0.1,0-0.22,0.03-0.34,0.08c-0.13,0.05-0.27,0.14-0.42,0.27l0.19,0.19c0.05,0.03,0.09,0.04,0.11,0.04h0.08
		C42.19,14.63,42.41,14.48,42.71,14.17z M42.52,21.43l-0.23,0.42l0.08,0.04c0.05,0,0.16-0.08,0.34-0.23L42.52,21.43z M43.36,24.97
		c-0.05,0-0.11-0.02-0.17-0.06c-0.06-0.04-0.13-0.08-0.21-0.13c-0.08-0.05-0.15-0.1-0.21-0.15c-0.06-0.05-0.12-0.08-0.17-0.08
		c-0.1,0-0.2,0.08-0.3,0.23l0.42,0.42h0.19C43.13,25.19,43.28,25.12,43.36,24.97z M43.55,28.31h-0.19l0.19,0.19V28.31z M43.85,14.48
		h-0.3v0.34h0.3V14.48z M43.85,19.87h-0.3v0.34h0.3V19.87z M43.97,11.48h-0.19l0.19,0.23V11.48z M44.92,10.56h-0.34v0.3h0.34V10.56z
		 M44.8,14.17h-0.23l0.23,0.23V14.17z M44.92,24.05h-0.34v0.3h0.34V24.05z M45.52,17.59h-0.3v0.34h0.3V17.59z M45.64,24.36h-0.23
		l0.23,0.19V24.36z M46.66,26.41c0-0.13-0.09-0.19-0.27-0.19c-0.25,0-0.38,0.11-0.38,0.34l0.04,0.08h0.61V26.41z M49.36,26.64
		l-0.19,0.19l0.19,0.23l0.23-0.23L49.36,26.64z M49.97,24.55v-0.3h0.34v0.3H49.97z"/>
	<path class="st2" d="M71.9,1.22c0,0.35-0.04,0.75-0.11,1.18s-0.2,0.9-0.38,1.41c-0.2,0.41-0.37,0.81-0.51,1.22
		c-0.14,0.41-0.27,0.81-0.4,1.22l-2.36,7.03c-0.03,0.1-0.06,0.23-0.1,0.4c-0.04,0.17-0.08,0.35-0.13,0.55
		c-0.1,0.28-0.21,0.54-0.32,0.8c-0.11,0.25-0.22,0.53-0.32,0.84c-0.25,0.66-0.38,1.24-0.38,1.75h-0.15c0.05,0-0.09,0.14-0.42,0.42
		l0.61,0.34l-0.04,10.72c-0.23,0.48-0.56,0.83-1.01,1.04c-0.44,0.22-0.98,0.32-1.61,0.32c0.2,0,0.02-0.02-0.53-0.06
		s-1.5-0.11-2.81-0.21c-0.13-0.03-0.27-0.08-0.42-0.15c-0.15-0.08-0.28-0.17-0.4-0.29c-0.11-0.11-0.21-0.24-0.29-0.38
		c-0.08-0.14-0.11-0.29-0.11-0.44c0-0.13,0.04-0.3,0.11-0.51c0.08-0.21,0.11-0.4,0.11-0.55c0-0.13-0.01-0.24-0.04-0.34
		c-0.03-0.1-0.03-0.19,0-0.27l0.04-9.65c-0.13-0.25-0.25-0.53-0.36-0.84c-0.11-0.3-0.22-0.67-0.32-1.1c-0.3-1.22-0.44-1.85-0.42-1.9
		c-0.1-0.2-0.21-0.45-0.32-0.74c-0.11-0.29-0.23-0.68-0.36-1.16c-0.28-0.53-0.55-1.16-0.82-1.88s-0.55-1.54-0.85-2.45
		s-0.62-1.91-0.95-2.98c-0.33-1.08-0.71-2.22-1.14-3.44c-0.13-0.25,0-0.48,0.38-0.68l0.8-0.34c0.13,0.03,0.25,0.04,0.38,0.06
		c0.13,0.01,0.27,0.02,0.42,0.02c0.13,0,0.29-0.01,0.49-0.02c0.2-0.01,0.41-0.03,0.63-0.04s0.42-0.03,0.63-0.04s0.37-0.02,0.49-0.02
		c0.61,0.03,1.1,0.14,1.48,0.34s0.66,0.52,0.84,0.95l-0.04,0.19c0.02,0.25,0.08,0.58,0.15,0.99s0.16,0.9,0.27,1.48
		c0.18,0.51,0.3,0.97,0.38,1.39s0.1,0.78,0.08,1.08l1.44,1.86l1.03-0.84c0.18,0.13,0.31,0.23,0.4,0.3c0.09,0.08,0.12,0.11,0.1,0.11
		h0.11l0.42-0.42c-0.13-0.13-0.25-0.26-0.38-0.4c-0.13-0.14-0.28-0.22-0.46-0.25l1.44-5.89c0.53-0.28,1.1-0.49,1.69-0.65
		c0.59-0.15,1.22-0.23,1.88-0.23c0.3,0.03,0.66,0.05,1.06,0.08c0.4,0.03,0.86,0.08,1.37,0.15c0.05,0.25,0.08,0.56,0.08,0.91H71.9z
		 M56.62,4.14c0-0.03-0.08-0.14-0.23-0.34l-0.23,0.19c0.2,0.15,0.32,0.23,0.34,0.23h0.08L56.62,4.14z M60,9.46h-0.3v0.3H60V9.46z
		 M60.76,14.71c-0.08-0.1-0.17-0.15-0.27-0.15c0.02,0-0.17,0.11-0.57,0.34l0.15,0.23h0.08c0.05,0,0.11-0.02,0.17-0.06
		c0.06-0.04,0.13-0.09,0.19-0.15c0.06-0.06,0.11-0.11,0.15-0.15C60.7,14.73,60.74,14.71,60.76,14.71z M60.53,8.25
		c0-0.02-0.08-0.14-0.23-0.34c-0.15,0.08-0.23,0.18-0.23,0.3c0,0.15,0.08,0.25,0.23,0.3l0.19-0.19L60.53,8.25z M60.8,4.52h-0.3v0.3
		h0.3V4.52z M60.91,25.19h-0.15l0.15,0.23V25.19z M61.1,9.16h-0.19l0.19,0.19V9.16z M61.56,13.26c-0.1-0.08-0.18-0.13-0.23-0.17
		s-0.09-0.06-0.11-0.06l-0.11,0.04l0.23,0.38L61.56,13.26z M62.17,12.31c0-0.2-0.1-0.3-0.3-0.3c-0.15,0-0.25,0.08-0.3,0.23
		l0.38,0.42C62.09,12.45,62.17,12.34,62.17,12.31z M61.83,15.01h-0.27v0.3h0.27V15.01z M63.38,14.71c-0.15-0.15-0.34-0.23-0.57-0.23
		c-0.18,0-0.31,0.03-0.4,0.09c-0.09,0.06-0.17,0.17-0.25,0.32c0.13,0.15,0.24,0.23,0.34,0.23c0.05,0,0.12-0.02,0.21-0.06
		c0.09-0.04,0.17-0.09,0.25-0.15c0.08-0.06,0.15-0.11,0.23-0.15C63.27,14.73,63.33,14.71,63.38,14.71z M62.97,11.63
		c-0.03-0.15-0.13-0.23-0.3-0.23c-0.15,0-0.25,0.08-0.3,0.23l0.19,0.19h0.08C62.65,11.82,62.76,11.76,62.97,11.63z M63.99,9.96
		c-0.08-0.1-0.2-0.2-0.38-0.28c-0.18-0.09-0.39-0.2-0.65-0.32l-0.19,0.42c0.05,0,0.12,0.02,0.21,0.06c0.09,0.04,0.17,0.08,0.25,0.13
		c0.08,0.05,0.15,0.1,0.23,0.15c0.08,0.05,0.14,0.08,0.19,0.08C63.78,10.18,63.89,10.11,63.99,9.96z M63.19,16.76h-0.23v0.42
		c0.15-0.18,0.23-0.28,0.23-0.3V16.76z M63.5,18.32h-0.3v0.3h0.3V18.32z M64.83,9.16l-0.08-0.04c-0.03,0-0.14,0.08-0.34,0.23
		l0.27,0.19c0.1-0.18,0.15-0.28,0.15-0.3V9.16z M65.66,11.4h-0.08c-0.46,0-0.71-0.06-0.76-0.19l-0.15,0.19
		c0.3,0.3,0.51,0.46,0.61,0.46c0.02,0,0.06,0,0.1,0s0.07-0.01,0.09-0.04l0.19-0.3V11.4z M65.25,6.19c0-0.05-0.08-0.16-0.23-0.34
		l-0.19,0.19l0.3,0.23h0.11V6.19z M66.08,15.73h-0.23l0.23,0.19V15.73z M66.46,9.12c-0.1,0-0.18,0.02-0.25,0.06
		c-0.06,0.04-0.11,0.09-0.13,0.17l0.23,0.19l0.38-0.38L66.46,9.12z M67.41,13.76h-0.3v0.34h0.3V13.76z M67.6,4.94h-0.3v0.3h0.3V4.94
		z"/>
	<path class="st2" d="M102.79,19.3c-0.08,0.96-0.16,1.87-0.25,2.72c-0.09,0.85-0.23,1.67-0.44,2.45c-0.36,1.09-0.74,2.01-1.14,2.77
		c-0.4,0.76-0.87,1.33-1.41,1.71c-0.3,0.28-0.57,0.48-0.8,0.61c-0.23,0.13-0.42,0.22-0.57,0.27c-0.28,0.08-0.65,0.17-1.12,0.29
		c-0.47,0.11-0.99,0.23-1.58,0.36c-0.03-0.03-0.47-0.07-1.33-0.13c-0.86-0.06-2.13-0.16-3.8-0.29c-0.56-0.33-1.03-0.61-1.43-0.84
		c-0.39-0.23-0.69-0.42-0.89-0.57c-0.43-0.3-0.78-0.62-1.05-0.95c-0.27-0.33-0.47-0.68-0.63-1.06c-0.03-0.1-0.06-0.24-0.09-0.42
		c-0.04-0.18-0.08-0.37-0.13-0.57c-0.1-0.38-0.2-0.75-0.3-1.1c-0.1-0.35-0.18-0.68-0.23-0.99c-0.15-3.9-0.25-6.8-0.3-8.7
		s-0.11-2.84-0.19-2.81c0-0.38,0.2-0.62,0.61-0.72c0.15-0.13,0.23-0.27,0.23-0.42c0-0.18-0.19-0.24-0.57-0.19
		c-0.03-0.99-0.01-1.84,0.06-2.55c0.06-0.71,0.15-1.32,0.25-1.82c0.3-1.62,0.92-2.88,1.86-3.76c0.13-0.1,0.3-0.23,0.51-0.4
		c0.22-0.16,0.5-0.36,0.85-0.59c0.23-0.13,0.44-0.27,0.65-0.42c0.2-0.15,0.42-0.3,0.65-0.44c0.23-0.14,0.46-0.25,0.68-0.34
		s0.46-0.13,0.68-0.13c0.15,0,0.29,0.01,0.42,0.04c0.13,0.03,0.27,0.08,0.42,0.15c0.23-0.13,0.48-0.22,0.76-0.28
		c0.28-0.06,0.58-0.1,0.91-0.1c0.38,0,0.97,0.08,1.79,0.23c0.38,0.03,0.72,0.05,1.01,0.08c0.29,0.03,0.54,0.05,0.74,0.08v0.15
		c0-0.02,0.04-0.01,0.11,0.06c0.08,0.06,0.19,0.18,0.34,0.36c0.35,0,0.68,0.11,0.99,0.32c0.3,0.22,0.58,0.54,0.84,0.97
		c0.36,0.51,0.65,0.9,0.89,1.18c0.24,0.28,0.42,0.47,0.55,0.57c0.43,1.37,0.76,2.55,0.99,3.55c0.23,1,0.34,1.83,0.34,2.49
		c0,0.43-0.04,0.85-0.12,1.25c-0.08,0.41-0.18,0.79-0.3,1.14c-0.2,0-0.46,0.01-0.78,0.02c-0.32,0.01-0.69,0.06-1.12,0.13
		c-0.41,0.05-0.77,0.09-1.08,0.13s-0.59,0.04-0.82,0.02c-0.68,0.03-1.25-0.08-1.71-0.3c-0.46-0.23-0.77-0.56-0.95-0.99
		c0.15-0.23,0.23-0.48,0.23-0.76c0-0.08-0.01-0.18-0.04-0.32c-0.03-0.14-0.05-0.28-0.08-0.42c-0.03-0.14-0.05-0.29-0.08-0.44
		c-0.03-0.15-0.04-0.27-0.04-0.34c0-0.28,0.08-0.52,0.23-0.72c-0.03-0.08-0.06-0.17-0.1-0.29s-0.08-0.23-0.13-0.36
		c-0.05-0.13-0.1-0.25-0.13-0.36c-0.04-0.11-0.06-0.22-0.06-0.32c0-0.18,0.06-0.34,0.19-0.49c-0.15,0-0.34-0.04-0.55-0.13
		c-0.22-0.09-0.48-0.21-0.78-0.36c-0.25-0.15-0.49-0.27-0.7-0.36c-0.22-0.09-0.41-0.16-0.59-0.21c-0.41,0.61-0.71,1.16-0.91,1.65
		c-0.2,0.49-0.32,0.96-0.34,1.39c0,0.13,0.01,0.24,0.02,0.34s0.03,0.2,0.06,0.3c-0.13,0.28-0.2,0.58-0.23,0.91
		c0,0.1,0.01,0.24,0.04,0.42c0.02,0.18,0.05,0.36,0.08,0.55c0.02,0.19,0.05,0.38,0.08,0.57C91.98,11.95,92,12.1,92,12.2
		c0,0.36-0.08,0.66-0.23,0.91c0.15,0.08,0.23,0.17,0.23,0.27c0,0.05-0.04,0.13-0.11,0.25c-0.08,0.11-0.1,0.22-0.08,0.32
		c-0.03,0.23-0.03,0.51,0,0.84c0.02,0.33,0.05,0.74,0.08,1.22c0.02,0.46,0.04,0.86,0.06,1.22s0.02,0.65,0.02,0.87L92,20.18
		c0,0.28-0.02,0.67-0.06,1.16c-0.04,0.49-0.09,1.1-0.17,1.8c0.25,0.2,0.54,0.46,0.85,0.78c0.32,0.32,0.7,0.67,1.16,1.04
		c0.08-0.15,0.21-0.3,0.4-0.44c0.19-0.14,0.45-0.26,0.78-0.36c0.66-0.23,0.99-0.48,0.99-0.76c0-0.1-0.03-0.22-0.08-0.36
		c-0.05-0.14-0.14-0.3-0.27-0.48c0.23-0.4,0.34-0.91,0.34-1.52c0-0.1-0.01-0.24-0.02-0.42c-0.01-0.18-0.03-0.36-0.06-0.55
		c-0.03-0.19-0.04-0.37-0.06-0.55c-0.01-0.18-0.02-0.33-0.02-0.46c0-0.81,0.25-1.46,0.76-1.94l5.28-0.04
		c0.53,0.46,0.81,1.17,0.84,2.13L102.79,19.3z M86.15,21.17h-0.42l0.42,0.23V21.17z M88.58,10.91c-0.08-0.13-0.17-0.19-0.27-0.19
		c-0.18,0-0.37,0.13-0.57,0.38h0.84V10.91z M88.27,7.37h-0.3v0.3h0.3V7.37z M88.65,12.62h-0.3v0.3h0.3V12.62z M88.65,24.89h-0.3v0.3
		h0.3V24.89z M88.88,5.36h-0.3v0.3h0.3V5.36z M88.88,14.25h-0.3v0.27h0.3V14.25z M89.79,22.91c0-0.05-0.08-0.16-0.23-0.34
		l-0.19,0.42h0.38L89.79,22.91z M90.29,3.34h-0.3v0.3h0.3V3.34z M89.98,5.47v0.19l0.19-0.19H89.98z M90.29,16.45h-0.3v0.3h0.3V16.45
		z M90.29,19.46h-0.3v0.3h0.3V19.46z M90.97,7.49h-0.61l0.42,0.42c0.15-0.2,0.23-0.32,0.23-0.34L90.97,7.49z M91.39,11.93h-0.23
		l0.23,0.19V11.93z M92,5.28h-0.23c-0.1-0.02-0.18-0.02-0.25,0.02c-0.06,0.04-0.11,0.09-0.13,0.17c0.15,0.15,0.25,0.23,0.3,0.23
		l0.08-0.04C91.92,5.51,92,5.41,92,5.36V5.28z M91.58,25.42h-0.19l0.19,0.19V25.42z M92.91,27.51h-0.3v0.3h0.3V27.51z M93.1,24.51
		h-0.3v0.3h0.3V24.51z M94.62,26.83c-0.1-0.15-0.24-0.23-0.42-0.23h-0.19l-0.04,0.11c0,0.2,0.16,0.3,0.49,0.3h0.15V26.83z
		 M94.81,1.86l0.8,0.8l0.19-0.19L94.81,1.86z M97.2,25c-0.08-0.15-0.22-0.23-0.42-0.23c-0.41,0-0.6,0.01-0.57,0.04
		c0.08,0.03,0.18,0.09,0.3,0.21c0.13,0.11,0.25,0.17,0.38,0.17C97.03,25.19,97.13,25.13,97.2,25z M98.04,5.28
		c-0.08-0.15-0.18-0.23-0.3-0.23c-0.15,0-0.25,0.08-0.3,0.23l0.19,0.19h0.08C97.72,5.47,97.84,5.41,98.04,5.28z M98.42,5.28
		l0.61,0.61l0.19-0.23L98.42,5.28z M98.84,19.57h-0.11c-0.03,0-0.06,0.02-0.09,0.06c-0.04,0.04-0.11,0.08-0.21,0.13l0.19,0.23
		c0.15-0.18,0.23-0.29,0.23-0.34V19.57z M99.03,7.49l-0.19,0.19l0.19,0.23l0.19-0.23L99.03,7.49z M99.45,23.6
		c-0.08-0.15-0.21-0.23-0.42-0.23l-0.19,0.04l0.38,0.38L99.45,23.6z M99.45,25.42h-0.23l0.23,0.19V25.42z M99.75,20.25h-0.3v0.3h0.3
		V20.25z M100.36,6.38h-0.3v0.3h0.3V6.38z M100.55,22.5h-0.3v0.3h0.3V22.5z"/>
	<path class="st2" d="M112.14,28.5c0.05,1.32-0.75,1.96-2.39,1.94c-0.23,0-0.52-0.02-0.87-0.06s-0.77-0.1-1.25-0.17
		c-0.99-0.18-1.74-0.24-2.24-0.19c-0.13-0.1-0.22-0.21-0.29-0.32s-0.09-0.25-0.09-0.4c0-0.08,0.01-0.17,0.04-0.27
		c0.03-0.1,0.05-0.2,0.08-0.3c0.02-0.1,0.05-0.21,0.08-0.32c0.02-0.11,0.04-0.2,0.04-0.25c0-0.2-0.09-0.39-0.27-0.57
		c0.18-2.2,0.32-3.86,0.42-4.98c0.1-1.11,0.23-1.57,0.38-1.37c-0.13-0.15-0.22-0.67-0.28-1.56c-0.06-0.89-0.12-2.15-0.17-3.8
		s-0.1-3.68-0.15-6.1c-0.05-2.42-0.1-5.25-0.15-8.49c0.25-0.53,0.65-0.94,1.18-1.22c-0.1-0.02,0.1-0.04,0.61-0.04
		c0.48,0,1.28,0,2.39,0c0.53,0.03,1.01,0.08,1.42,0.15s0.8,0.17,1.16,0.27c0.13,0.25,0.23,0.51,0.3,0.76s0.13,0.54,0.15,0.87
		c-0.03,0.2-0.06,0.44-0.09,0.7c-0.04,0.27-0.09,0.59-0.17,0.97c-0.13,0.73-0.19,1.29-0.19,1.67c0,0.28,0.01,0.61,0.04,1.01
		c0.03,0.39,0.06,0.84,0.11,1.35c0.05,0.53,0.07,1,0.06,1.41c-0.01,0.41-0.01,0.74,0.02,0.99c0,0.25-0.01,0.57-0.02,0.95
		c-0.01,0.38-0.04,0.84-0.1,1.37c-0.03,0.53-0.06,0.98-0.09,1.35s-0.11,0.67-0.21,0.89c0.08,2.56,0.15,4.74,0.23,6.56
		c0.08,1.81,0.11,3.38,0.11,4.69c0,0.15,0.01,0.34,0.04,0.57s0.05,0.46,0.08,0.7c0.02,0.24,0.06,0.47,0.09,0.68
		c0.04,0.22,0.06,0.4,0.06,0.55H112.14z M106.59,15.12h-0.42l0.42,0.23V15.12z M106.51,18.35h-0.34v0.3h0.34V18.35z M108.26,13.49
		c-0.13,0.03-0.27,0.07-0.44,0.13c-0.17,0.06-0.36,0.16-0.59,0.29c0.05,0.15,0.2,0.22,0.46,0.19h0.15c0.08-0.08,0.16-0.15,0.27-0.23
		c0.1-0.1,0.15-0.21,0.15-0.34V13.49z M109.48,10.6c-0.03-0.08-0.1-0.11-0.23-0.11c-0.2,0-0.46,0.1-0.76,0.3l0.19,0.23
		c0.02,0.03,0.05,0.04,0.08,0.04s0.05,0,0.08,0C108.96,11.06,109.17,10.91,109.48,10.6z M109.33,18.24h-0.27l0.27,0.19V18.24z
		 M109.9,21.55c-0.25-0.28-0.44-0.42-0.57-0.42c-0.08,0-0.17,0.08-0.27,0.23l0.42,0.38l0.08,0.04
		C109.6,21.77,109.72,21.7,109.9,21.55z M110.43,24.55h-0.3v0.3h0.3V24.55z"/>
	<path class="st2" d="M132.09,2.66c-0.03-0.1-0.05,0.07-0.08,0.51c-0.03,0.44-0.08,1.2-0.15,2.26c-0.33,0.53-0.79,0.8-1.37,0.8
		c-0.1,0-0.24-0.01-0.42-0.04c-0.18-0.02-0.36-0.05-0.55-0.08c-0.19-0.02-0.37-0.05-0.55-0.08c-0.18-0.02-0.33-0.02-0.46,0
		c-0.56-0.02-1.02,0.17-1.39,0.57c-0.37,0.41-0.64,1.04-0.82,1.9c0.15,0.08,0.23,0.21,0.23,0.42l-0.04,0.23l-0.38,0.42
		c0.13,0.18,0.22,0.4,0.28,0.67c0.06,0.27,0.11,0.56,0.13,0.89c0,0.23-0.02,0.49-0.06,0.8s-0.09,0.62-0.17,0.95
		c0.08,0.23,0.13,0.48,0.17,0.76c0.04,0.28,0.06,0.57,0.06,0.87c0,0.08-0.01,0.2-0.04,0.36c-0.03,0.17-0.05,0.33-0.08,0.49
		c-0.03,0.17-0.04,0.33-0.06,0.49c-0.01,0.17-0.01,0.29,0.02,0.36l0.34,12.5c-0.15,0.15-0.27,0.3-0.34,0.46s-0.14,0.3-0.19,0.44
		c-0.05,0.14-0.09,0.26-0.13,0.36c-0.04,0.1-0.09,0.17-0.17,0.19c-0.1,0.08-0.27,0.12-0.49,0.13c-0.23,0.01-0.52,0.01-0.87-0.02
		c-0.15,0.03-0.34,0.04-0.55,0.06c-0.22,0.01-0.44,0.03-0.67,0.06c-0.23,0.03-0.44,0.04-0.65,0.04c-0.2,0-0.37,0-0.49,0
		c-1.12-0.03-1.94-0.29-2.47-0.8l-0.04-4.26c0.03-0.58,0.04-1.11,0.06-1.58c0.01-0.47,0.02-0.91,0.02-1.31
		c0.08-0.61,0.13-1.03,0.15-1.25c0.02-0.23,0.08-0.25,0.15-0.08c-0.03-1.65-0.06-3.09-0.11-4.33s-0.09-2.29-0.13-3.15
		s-0.07-1.54-0.1-2.03s-0.03-0.8,0-0.93c0-0.53,0.08-0.91,0.23-1.14c-0.15-0.33-0.23-0.71-0.23-1.14c0-0.48,0.08-0.85,0.23-1.1
		c-0.41-0.63-1.04-1.03-1.9-1.18c-0.08,0.03-0.3,0.03-0.68,0c-0.38-0.02-0.94-0.05-1.67-0.08L115.18,6
		c-0.36-0.15-0.63-0.39-0.84-0.72c-0.2-0.33-0.29-0.77-0.27-1.33c0.03-0.18,0.04-0.39,0.04-0.65s0.03-0.53,0.08-0.84
		c0.05-0.35,0.09-0.65,0.11-0.89c0.02-0.24,0.04-0.44,0.04-0.59c0-0.33,0.19-0.54,0.57-0.65c0.56-0.15,0.85-0.24,0.87-0.27
		l12.39,0.23c0.08,0,0.2-0.01,0.36-0.04s0.34-0.05,0.51-0.08c0.18-0.02,0.35-0.06,0.53-0.09c0.18-0.04,0.32-0.06,0.42-0.06
		c0.71,0.03,1.27,0.17,1.67,0.42c0.13,0.36,0.22,0.71,0.29,1.06C132.02,1.88,132.06,2.26,132.09,2.66z M121.14,6.46
		c-0.13-0.28-0.34-0.42-0.65-0.42c-0.23,0-0.42,0.08-0.57,0.23c0.05,0,0.11,0.02,0.19,0.06c0.08,0.04,0.16,0.09,0.25,0.15
		c0.09,0.06,0.17,0.11,0.25,0.15s0.14,0.06,0.19,0.06C120.9,6.69,121.02,6.61,121.14,6.46z M120.76,8.13
		c-0.18-0.15-0.29-0.23-0.34-0.23c-0.2,0-0.3,0.1-0.3,0.3c0,0.15,0.08,0.25,0.23,0.3L120.76,8.13z M120.53,10.37l-0.19,0.42
		l0.04,0.04c0.08,0,0.2-0.08,0.38-0.23L120.53,10.37z M121.14,17.82l-0.19,0.19l0.19,0.19l0.23-0.19L121.14,17.82z M121.98,8.74
		c-0.03-0.15-0.13-0.23-0.3-0.23c-0.18,0-0.28,0.08-0.3,0.23l0.19,0.19l0.08,0.04C121.66,8.97,121.78,8.89,121.98,8.74z
		 M121.67,11.74h-0.3v0.3h0.3V11.74z M121.98,5.78c0-0.02-0.02-0.06-0.06-0.11c-0.04-0.05-0.08-0.13-0.13-0.23l-0.23,0.23
		c0.2,0.13,0.32,0.19,0.34,0.19h0.08V5.78z M121.98,23.94c0-0.02-0.02-0.07-0.06-0.13s-0.08-0.13-0.13-0.21l-0.23,0.19
		c0.18,0.15,0.29,0.23,0.34,0.23l0.08-0.04V23.94z M122.09,16.87h-0.3v0.3h0.3V16.87z M124.87,4.83c-0.18-0.18-0.35-0.27-0.53-0.27
		c-0.08,0-0.17,0.03-0.29,0.08s-0.23,0.11-0.34,0.19c-0.11,0.08-0.22,0.14-0.32,0.19c-0.1,0.05-0.19,0.08-0.27,0.08
		c-0.18,0-0.35-0.09-0.53-0.27c0.1,0.41,0.29,0.61,0.57,0.61c0.08,0,0.18-0.03,0.32-0.09c0.14-0.06,0.29-0.13,0.44-0.21
		c0.15-0.08,0.3-0.15,0.44-0.23c0.14-0.08,0.26-0.11,0.36-0.11c0.02,0,0.05,0,0.08,0C124.82,4.79,124.84,4.8,124.87,4.83z
		 M123.84,3.38l-0.19,0.19l0.19,0.23l0.19-0.23L123.84,3.38z M124.26,6.04h-0.23l0.23,0.23V6.04z M124.45,13.26
		c-0.1-0.08-0.17-0.13-0.21-0.15c-0.04-0.02-0.07-0.04-0.09-0.04h-0.11l0.23,0.42L124.45,13.26z M124.45,7.11h-0.19l0.42,0.19
		L124.45,7.11z M125.28,23.79c-0.38,0-0.58-0.06-0.61-0.19l-0.23,0.19c0.03,0.15,0.14,0.23,0.34,0.23c0.35,0,0.52-0.01,0.49-0.04
		V23.79z M125.47,5.24l0.23,0.19c0.25-0.2,0.52-0.54,0.8-1.03L125.47,5.24z M129.01,4.83c-0.15-0.15-0.29-0.23-0.42-0.23
		c-0.18,0-0.37,0.11-0.57,0.34c-0.15,0.15-0.26,0.27-0.32,0.34s-0.11,0.13-0.13,0.15c0.08-0.28,0.28-0.42,0.61-0.42
		C128.6,5.02,128.88,4.95,129.01,4.83z"/>
	<path class="st2" d="M152.45,28.84c0,0.41-0.09,0.77-0.27,1.1c-0.3,0.28-0.67,0.43-1.1,0.46c-0.1-0.02-0.24-0.05-0.42-0.08
		c-0.18-0.02-0.36-0.05-0.55-0.08c-0.19-0.02-0.37-0.05-0.55-0.08c-0.18-0.03-0.32-0.04-0.42-0.04c-0.33,0-0.63,0.08-0.91,0.23
		l-0.23-0.19c-0.13,0.13-0.28,0.19-0.46,0.19c-0.08,0-0.17-0.02-0.29-0.06s-0.22-0.08-0.32-0.13s-0.2-0.1-0.3-0.15
		c-0.1-0.05-0.19-0.09-0.27-0.11c-0.71-0.71-1.09-2.34-1.14-4.9c0.03-0.18,0.04-0.41,0.04-0.7s0.01-0.61,0.04-0.97
		c0.02-0.4,0.04-0.73,0.04-0.97c0-0.24-0.01-0.42-0.04-0.55c0.02-0.99-0.17-1.82-0.57-2.49c-0.41-0.67-1.05-1.16-1.94-1.46
		c-0.23,0.13-0.46,0.19-0.68,0.19c-0.13,0-0.31-0.02-0.55-0.06c-0.24-0.04-0.42-0.06-0.55-0.06c-0.23,0-0.39,0.04-0.49,0.11
		c0.56,0.2,0.85,0.56,0.87,1.06c0,0.1-0.02,0.22-0.06,0.36c-0.04,0.14-0.08,0.29-0.11,0.44c-0.04,0.15-0.07,0.31-0.09,0.48
		c-0.03,0.17-0.04,0.3-0.04,0.4c0,0.36,0.09,0.63,0.27,0.84c-0.28,0.18-0.42,0.38-0.42,0.61c0,0.08,0.03,0.17,0.08,0.29
		s0.11,0.23,0.17,0.36c0.06,0.13,0.12,0.25,0.17,0.36s0.08,0.21,0.08,0.29c0,0.2-0.09,0.39-0.27,0.57c0.05,0.41,0.1,0.82,0.15,1.25
		s0.08,0.89,0.08,1.37l-0.04,2.81c-0.33,0.63-0.89,0.94-1.67,0.91c-0.15,0-0.34-0.02-0.55-0.06c-0.22-0.04-0.44-0.08-0.68-0.11
		s-0.47-0.08-0.68-0.11c-0.22-0.04-0.37-0.06-0.47-0.06c-0.08,0-0.18,0.02-0.32,0.06c-0.14,0.04-0.27,0.08-0.4,0.11
		s-0.25,0.08-0.38,0.11s-0.23,0.04-0.3,0.02c-0.23,0.03-0.44-0.02-0.63-0.13c-0.19-0.11-0.36-0.26-0.51-0.44
		c-0.15-0.18-0.27-0.39-0.34-0.63c-0.08-0.24-0.13-0.49-0.15-0.74c0-0.33,0.08-0.67,0.23-1.03l-0.49-0.3l0.68-17.21
		c-0.15-0.08-0.23-0.23-0.23-0.46c0-0.43,0.01-0.62,0.04-0.57l0.11-0.04c0.02,0,0.11,0.08,0.27,0.23c0.3-0.35,0.46-0.52,0.46-0.49
		c0-0.23-0.09-0.34-0.27-0.34c-0.08,0-0.18,0.03-0.3,0.1s-0.25,0.08-0.38,0.06l-0.04-7.26c0.25-0.35,0.64-0.63,1.16-0.82
		c0.52-0.19,1.13-0.29,1.84-0.29c0.23,0,0.51,0.01,0.86,0.04c0.34,0.03,0.73,0.07,1.16,0.13c0.43,0.06,0.82,0.1,1.16,0.11
		c0.34,0.01,0.63,0.02,0.85,0.02c0.15,0,0.37-0.01,0.65-0.02c0.28-0.01,0.61-0.03,0.99-0.06c0.35-0.05,0.67-0.09,0.95-0.11
		c0.28-0.02,0.51-0.02,0.68,0c1.47,0,2.68,0.17,3.63,0.49c0.95,0.33,1.7,0.91,2.26,1.75c0.25,0.41,0.51,1.1,0.78,2.07
		c0.27,0.98,0.5,2.24,0.7,3.78c0.03,0.18,0.04,0.36,0.06,0.53c0.01,0.18,0.01,0.34-0.02,0.49c0.08,0.99-0.21,2.32-0.87,3.99
		c-0.13,0.28-0.42,0.62-0.87,1.03c-0.51,0.41-0.75,0.79-0.72,1.14c-0.03,0.13,0.04,0.34,0.21,0.63s0.4,0.68,0.7,1.16
		c0.33,0.46,0.58,0.88,0.76,1.27c0.18,0.39,0.27,0.75,0.27,1.08c0,0.3-0.05,0.57-0.15,0.8c0.13,0.18,0.22,0.39,0.29,0.65
		c0.06,0.25,0.12,0.52,0.17,0.8c0.02,0.43,0.02,0.99,0,1.67c-0.03,0.53-0.04,0.92-0.04,1.18c0,0.25,0,0.39,0,0.42
		c0,0.23,0.03,0.5,0.08,0.82c0.05,0.32,0.14,0.68,0.27,1.08c0.1,0.41,0.18,0.77,0.25,1.08C152.42,28.38,152.45,28.64,152.45,28.84z
		 M136.34,13.07c-0.08-0.15-0.18-0.23-0.3-0.23c-0.15,0-0.27,0.08-0.34,0.23l0.23,0.19H136L136.34,13.07z M137.37,19.72
		c-0.13-0.15-0.33-0.23-0.61-0.23c-0.28,0-0.49,0.08-0.65,0.23l0.23,0.23h0.61C137.15,19.95,137.29,19.87,137.37,19.72z
		 M136.34,20.98h-0.23l0.23,0.23V20.98z M136.46,23.79h-0.34v0.34h0.34V23.79z M137.6,15.96c-0.13-0.15-0.3-0.23-0.53-0.23
		c-0.23,0-0.41,0.08-0.53,0.23l0.23,0.23h0.49C137.43,16.19,137.55,16.11,137.6,15.96z M137.37,14.71
		c-0.05-0.13-0.17-0.19-0.34-0.19h-0.11h-0.15l0.42,0.42L137.37,14.71z M137.18,25.16h-0.23l0.23,0.19V25.16z M137.48,7.33h-0.3v0.3
		h0.3V7.33z M137.48,21.93h-0.3v0.3h0.3V21.93z M137.37,26.41h-0.19l0.19,0.19V26.41z M138.62,18.28c-0.05-0.08-0.12-0.13-0.21-0.17
		s-0.19-0.07-0.3-0.09s-0.22-0.05-0.32-0.08s-0.17-0.05-0.19-0.08l0.84,0.61L138.62,18.28z M138.2,13.68h-0.42l0.42,0.19V13.68z
		 M138.62,11.59c-0.05-0.15-0.15-0.23-0.3-0.23c-0.18,0-0.28,0.08-0.3,0.23l0.19,0.23h0.08C138.31,11.82,138.42,11.74,138.62,11.59z
		 M138.2,16.8v0.23l0.23-0.23H138.2z M138.43,6.57V6.8l0.19-0.23H138.43z M139.27,9.01c0-0.03-0.08-0.14-0.23-0.34l-0.42,0.42
		l0.23,0.23h0.08c0.05,0,0.16-0.08,0.34-0.23V9.01z M139.27,20.56l-0.65,0.42l0.23,0.23c0-0.05,0.09-0.14,0.27-0.27
		c0.1-0.1,0.15-0.19,0.15-0.27V20.56z M140.1,9.92c-0.13-0.13-0.28-0.19-0.46-0.19c-0.41,0-0.67,0.2-0.8,0.61
		c0.05-0.08,0.13-0.13,0.25-0.15s0.24-0.04,0.38-0.06c0.14-0.01,0.27-0.03,0.38-0.06C139.97,10.05,140.05,9.99,140.1,9.92z
		 M140.29,24.32c-0.13-0.15-0.33-0.23-0.61-0.23c-0.33,0-0.47,0.13-0.42,0.38v0.08c0.08,0.13,0.18,0.19,0.3,0.19
		c0.03,0,0.08-0.02,0.15-0.06s0.15-0.08,0.21-0.13c0.06-0.05,0.13-0.1,0.19-0.15S140.24,24.32,140.29,24.32z M139.65,14.29
		c-0.23,0-0.36,0.08-0.38,0.23l0.19,0.19l0.42-0.42H139.65z M139.46,19.3c-0.13,0.08-0.19,0.18-0.19,0.3c0,0.15,0.06,0.27,0.19,0.34
		l0.65-0.65H139.46z M142.19,15.47c0-0.03-0.08-0.15-0.23-0.38c-0.28,0.35-0.6,0.63-0.97,0.84s-0.8,0.35-1.31,0.46
		c0.05,0.03,0.11,0.04,0.17,0.06s0.13,0.02,0.21,0.02c0.13,0,0.28-0.03,0.46-0.09c0.18-0.06,0.38-0.15,0.61-0.25
		c0.56-0.35,0.91-0.54,1.06-0.57V15.47z M141.13,3.04c-0.15-0.15-0.36-0.23-0.61-0.23c-0.28,0-0.49,0.08-0.65,0.23l0.23,0.19
		c-0.08,0.03-0.06,0.04,0.04,0.04c0.1,0,0.28,0,0.53,0C140.9,3.27,141.05,3.19,141.13,3.04z M140.6,7.75h-0.3v0.3h0.3V7.75z
		 M140.71,12.84c0.02-0.2-0.04-0.34-0.19-0.42c-0.15,0.08-0.23,0.21-0.23,0.42s0.08,0.34,0.23,0.42l0.19-0.19V12.84z M140.71,14.93
		l-0.19,0.19l0.19,0.23l0.23-0.23L140.71,14.93z M140.83,19.42h-0.3v0.3h0.3V19.42z M145.92,11.17h-0.08
		c-0.03,0-0.06,0.02-0.11,0.06s-0.13,0.08-0.23,0.13c0.02-0.48,0.03-1.05,0.02-1.71c-0.01-0.66-0.07-1.39-0.17-2.2
		c-0.05-0.3-0.15-0.58-0.3-0.84c-0.15-0.25-0.33-0.47-0.53-0.65c-0.2-0.18-0.44-0.32-0.7-0.44s-0.54-0.16-0.82-0.13
		c-0.96,0-1.65,0.39-2.05,1.18c0.05,0.25,0.09,0.56,0.13,0.91c0.04,0.36,0.07,0.77,0.1,1.25c-0.03,0.71-0.03,1.27-0.02,1.69
		s0.02,0.68,0.02,0.78c0.18,1.06,0.61,1.62,1.29,1.67c0.13,0,0.28-0.03,0.47-0.1c0.19-0.06,0.39-0.13,0.59-0.19
		c0.2-0.06,0.4-0.12,0.59-0.17c0.19-0.05,0.34-0.08,0.44-0.08c0.3,0,0.56,0.1,0.76,0.3l0.23-0.23l-0.65-0.42
		c-0.03-0.05-0.04-0.09-0.04-0.11v-0.04c0-0.13,0.15-0.35,0.46-0.68l0.61,0.65h0.11c0.05,0,0.15-0.08,0.3-0.23L145.92,11.17z
		 M141.78,13.76c0-0.2-0.14-0.3-0.42-0.3l-0.23,0.04v0.11c0,0.33,0.11,0.49,0.34,0.49h0.08C141.7,13.92,141.78,13.81,141.78,13.76z
		 M143.6,16.8h-0.15c-0.61,0-1.03,0.14-1.25,0.42l0.42,0.42c0.15-0.05,0.33-0.15,0.53-0.3c0.2-0.15,0.44-0.33,0.72-0.53H143.6z
		 M144.89,14.1c-0.05-0.15-0.17-0.23-0.34-0.23h-0.49c-0.13,0.05-0.33,0.11-0.61,0.17c-0.28,0.06-0.63,0.15-1.06,0.25l0.23,0.23
		c0.1-0.08,0.25-0.11,0.46-0.11c0.1,0,0.27,0.02,0.51,0.06c0.24,0.04,0.41,0.06,0.51,0.06C144.45,14.52,144.71,14.38,144.89,14.1z
		 M143.22,15.96c-0.05-0.13-0.17-0.19-0.34-0.19h-0.11h-0.15l0.42,0.42L143.22,15.96z M143.11,3.99h-0.3v0.3h0.3V3.99z M144.7,3.88
		h-0.23l0.23,0.19V3.88z M146.15,14.71c-0.05-0.08-0.11-0.13-0.17-0.15c-0.06-0.03-0.13-0.04-0.21-0.04c-0.41,0-0.62,0.2-0.65,0.61
		c0.05,0.03,0.1,0.04,0.15,0.04h0.04c0.08,0,0.15-0.02,0.23-0.06c0.08-0.04,0.16-0.09,0.25-0.15c0.09-0.06,0.17-0.12,0.23-0.17
		C146.08,14.73,146.12,14.71,146.15,14.71z M145.84,16.91h-0.3v0.3h0.3V16.91z M146.15,20.14c-0.03-0.15-0.13-0.23-0.3-0.23
		c-0.18,0-0.28,0.08-0.3,0.23l0.19,0.23h0.08C145.83,20.37,145.94,20.29,146.15,20.14z M146.34,18.05
		c-0.15-0.15-0.27-0.23-0.34-0.23l-0.08,0.04l0.42,0.42V18.05z M147.59,14.1c-0.13-0.15-0.3-0.23-0.53-0.23
		c-0.38,0-0.62,0.14-0.72,0.42c0.1,0.15,0.23,0.23,0.38,0.23c0.05,0,0.11-0.02,0.19-0.06c0.08-0.04,0.16-0.08,0.25-0.13
		c0.09-0.05,0.17-0.1,0.25-0.15S147.54,14.1,147.59,14.1z M146.75,10.56l-0.19,0.19l0.19,0.23l0.23-0.23L146.75,10.56z M147.63,9.04
		c0-0.05-0.03-0.11-0.08-0.19c-0.05-0.08-0.1-0.14-0.15-0.19c-0.05-0.05-0.13-0.11-0.23-0.19l-0.19,0.19c0.03,0,0.05,0.03,0.08,0.08
		c0.02,0.05,0.06,0.11,0.11,0.17c0.05,0.06,0.11,0.11,0.17,0.15c0.06,0.04,0.12,0.06,0.17,0.06l0.08-0.04L147.63,9.04z
		 M147.17,15.96l-0.19,0.23l0.19,0.19l0.23-0.19L147.17,15.96z M147.59,17.86l-0.04-0.04c-0.08,0-0.2,0.08-0.38,0.23l0.23,0.23
		c0.15-0.2,0.23-0.32,0.23-0.34L147.59,17.86z M147.59,4.29h-0.19l0.19,0.42V4.29z M149.19,6.27h-0.34v0.3h0.34V6.27z"/>
	<path class="st2" d="M171.57,2.81c0,0.13-0.01,0.31-0.02,0.55c-0.01,0.24-0.03,0.49-0.04,0.74c-0.01,0.25-0.02,0.49-0.02,0.72
		c0,0.23,0.04,0.41,0.11,0.53l-0.08,13.87c-0.08,0.23-0.11,0.46-0.11,0.68c0,0.15,0.02,0.36,0.06,0.61
		c0.04,0.25,0.06,0.44,0.06,0.57c0,0.25-0.06,0.52-0.19,0.8l0.23,0.15l-0.68,3.72c0,0.03-0.02,0.08-0.06,0.17
		c-0.04,0.09-0.11,0.23-0.21,0.44c-0.48,0.84-0.97,1.48-1.46,1.94s-0.99,0.77-1.5,0.95c-0.56,0.46-1.37,0.77-2.43,0.95
		c-0.46,0.03-0.9,0.06-1.33,0.09s-0.86,0.08-1.29,0.13c-0.18-0.03-0.45-0.06-0.82-0.11c-0.37-0.05-0.85-0.11-1.46-0.19
		c-0.48-0.08-0.91-0.15-1.27-0.23c-0.37-0.08-0.7-0.16-1.01-0.27c-0.79-0.35-1.42-0.84-1.9-1.44c-0.48-0.61-0.89-1.38-1.22-2.32
		c-0.13-0.56-0.24-1.25-0.34-2.09c-0.1-0.84-0.14-1.89-0.11-3.15c-0.13-3.83-0.2-6.75-0.23-8.76c-0.03-2.01-0.03-3.16,0-3.44
		c0-0.56,0.06-0.95,0.19-1.18c-0.1-0.23-0.17-0.54-0.21-0.93c-0.04-0.39-0.04-0.88-0.02-1.46c0.05-0.53,0.03-0.99-0.06-1.37
		c-0.09-0.38-0.21-0.7-0.36-0.95c0.13-0.33,0.23-0.65,0.32-0.95c0.09-0.3,0.18-0.62,0.29-0.95c0.13-0.2,0.39-0.34,0.8-0.42
		s0.92-0.13,1.56-0.15c0.58,0,1.24,0.08,1.98,0.23c0.13-0.13,0.27-0.19,0.42-0.19c0.05,0,0.12,0.01,0.21,0.04
		c0.09,0.03,0.18,0.05,0.29,0.08c0.1,0.03,0.2,0.04,0.29,0.06c0.09,0.01,0.16,0.02,0.21,0.02c0.4,0.35,0.61,0.73,0.61,1.14
		c0,0.03,0,0.08,0,0.15c0,0.05-0.01,0.1-0.04,0.15l-0.15,0.19c0.05,0.25,0.1,0.51,0.15,0.78c0.05,0.27,0.06,0.54,0.04,0.82
		c0.03,0.18,0.03,0.41,0,0.7c-0.03,0.29-0.06,0.61-0.11,0.97c-0.03,0.36-0.04,0.67-0.06,0.95c-0.01,0.28-0.02,0.51-0.02,0.68
		c-0.03,0.33-0.02,0.63,0.02,0.89s0.08,0.5,0.13,0.7c-0.05,0.18-0.09,0.35-0.11,0.51c-0.03,0.17-0.04,0.35-0.04,0.55
		c0,0.13,0.01,0.29,0.02,0.49c0.01,0.2,0.03,0.41,0.06,0.61c0.02,0.2,0.05,0.4,0.08,0.59c0.03,0.19,0.04,0.35,0.04,0.47
		c0,0.41-0.06,0.76-0.19,1.06c0.13,0.2,0.19,0.41,0.19,0.61c0,0.05-0.01,0.12-0.02,0.21s-0.03,0.18-0.06,0.28
		c-0.03,0.1-0.04,0.2-0.06,0.3s-0.02,0.19-0.02,0.27c0,0.2,0.04,0.39,0.11,0.57c-0.03,0.25-0.03,0.66,0,1.22
		c0.05,0.48,0,0.89-0.15,1.22c0.13,0.2,0.19,0.41,0.19,0.61c0,0.08-0.01,0.17-0.04,0.29c-0.03,0.11-0.05,0.23-0.08,0.34
		c-0.03,0.11-0.04,0.23-0.06,0.34s-0.02,0.21-0.02,0.29c0,0.15,0.05,0.34,0.15,0.57c-0.1,0.18-0.15,0.35-0.15,0.53
		c0,0.1,0.03,0.27,0.09,0.49c0.06,0.23,0.09,0.41,0.09,0.53c0,0.18-0.06,0.34-0.19,0.49c0.25,0.79,0.44,1.25,0.57,1.41
		c0.25,0.51,0.61,0.85,1.06,1.03c0-0.02,0.01-0.04,0.04-0.04c0.05,0,0.1-0.01,0.15-0.04c0.1,0,0.22,0.04,0.36,0.11
		c0.14,0.08,0.29,0.16,0.44,0.25c0.15,0.09,0.29,0.17,0.42,0.23c0.13,0.06,0.21,0.1,0.27,0.1c0.25,0,0.44-0.2,0.57-0.61
		c-0.08-0.15-0.29-0.21-0.65-0.19c0.05-0.05,0.13-0.1,0.25-0.13c0.11-0.04,0.24-0.07,0.38-0.09c0.14-0.02,0.27-0.07,0.38-0.13
		c0.11-0.06,0.2-0.15,0.25-0.25c-0.1-0.08-0.18-0.16-0.23-0.25s-0.08-0.2-0.08-0.32c0-0.08,0.02-0.18,0.06-0.3
		c0.04-0.13,0.08-0.26,0.11-0.4c0.04-0.14,0.08-0.27,0.11-0.4s0.06-0.23,0.06-0.3c0-0.28-0.09-0.51-0.27-0.68
		c0.15-0.2,0.23-0.46,0.23-0.76c0-0.08-0.01-0.18-0.04-0.32c-0.03-0.14-0.06-0.28-0.09-0.42c-0.04-0.14-0.07-0.28-0.09-0.42
		c-0.03-0.14-0.04-0.25-0.04-0.32c0-0.51,0.35-0.77,1.06-0.8c-0.43-0.08-0.68-0.32-0.76-0.72c-0.13-0.71-0.2-1.06-0.23-1.06
		c-0.05,0.05-0.06-0.47-0.04-1.56c-0.03-0.33-0.01-0.63,0.04-0.89c0.05-0.27,0.1-0.49,0.15-0.67c-0.05-0.15-0.09-0.34-0.13-0.57
		c-0.04-0.23-0.07-0.51-0.09-0.84c0.03-0.56,0.03-0.96,0.02-1.2c-0.01-0.24-0.01-0.32,0.02-0.25c0.15-0.15,0.23-0.33,0.23-0.53
		c0-0.08-0.01-0.16-0.04-0.27c-0.03-0.1-0.06-0.2-0.09-0.3s-0.07-0.21-0.09-0.32c-0.03-0.11-0.04-0.2-0.04-0.25
		c0-0.15,0.09-0.34,0.27-0.57c-0.18-0.08-0.27-0.21-0.27-0.42c0-0.43,0.01-0.63,0.04-0.61l0.42-0.38L164.8,6l0.19-5.28
		c0.41-0.2,0.86-0.37,1.37-0.49s1.06-0.19,1.67-0.19c0.56,0.03,1.11,0.07,1.65,0.13s1.1,0.16,1.65,0.28c0.05,0.41,0.09,0.8,0.13,1.2
		C171.51,2.05,171.54,2.43,171.57,2.81z M155.65,15.58h-0.19l0.19,0.19V15.58z M156.37,8.74h-0.34v0.3h0.34V8.74z M156.67,14.1
		c0-0.08-0.06-0.19-0.19-0.34l-0.19,0.19c0.15,0.15,0.25,0.23,0.3,0.23l0.04-0.04L156.67,14.1z M157.47,17.82
		c-0.1-0.15-0.28-0.23-0.53-0.23h-0.65c0.05,0.03,0.16,0.1,0.32,0.23c0.17,0.13,0.34,0.19,0.51,0.19
		C157.25,18.01,157.37,17.95,157.47,17.82z M157.09,20.86l-0.23,0.23l0.23,0.19l0.19-0.19L157.09,20.86z M157.55,24.43h-0.27v0.3
		h0.27V24.43z M158,9.58h-0.34v0.3H158V9.58z M158.12,18.85l-0.08-0.04c-0.05,0-0.18,0.08-0.38,0.23l0.23,0.19
		c0.15-0.15,0.23-0.25,0.23-0.3V18.85z M158.27,13.34h-0.38l0.38,0.19V13.34z M158.72,21.28h-0.08c-0.25,0-0.38,0.11-0.38,0.34v0.08
		h0.19c0.18-0.18,0.27-0.29,0.27-0.34V21.28z M159.03,25.84h-0.3v0.3h0.3V25.84z M159.1,5.4l0.8,0.8L160.13,6L159.1,5.4z
		 M159.64,25.65h-0.3v0.3h0.3V25.65z M159.52,27.4l-0.19,0.19l0.19,0.19l0.23-0.19L159.52,27.4z M159.75,11.51h-0.23l0.23,0.19
		V11.51z M159.52,14.36h0.23l0.61-0.61L159.52,14.36z M160.36,16.19c-0.2-0.15-0.33-0.23-0.38-0.23c-0.18,0-0.27,0.11-0.27,0.34
		c0,0.13,0.06,0.23,0.19,0.3L160.36,16.19z M160.24,20.98h-0.34v0.3h0.34V20.98z M161.99,24.89c0-0.08-0.08-0.19-0.23-0.34
		l-0.23,0.19c0.2,0.15,0.32,0.23,0.34,0.23l0.11-0.04V24.89z M163.78,27.59c-0.05-0.15-0.15-0.23-0.3-0.23h-0.11l-0.19,0.04
		l0.42,0.38L163.78,27.59z M164.8,26.98c-0.18-0.15-0.28-0.23-0.3-0.23l-0.08,0.04l0.15,0.38L164.8,26.98z M165.87,8.78
		c0-0.05-0.08-0.16-0.23-0.34l-0.23,0.23c0.18,0.13,0.29,0.19,0.34,0.19h0.08L165.87,8.78z M165.75,21.39h-0.34v0.3h0.34V21.39z
		 M166.21,23.52c-0.05-0.15-0.18-0.23-0.38-0.23c-0.1,0-0.19,0.02-0.27,0.06s-0.13,0.09-0.15,0.17l0.23,0.19h0.19
		C166.01,23.71,166.13,23.65,166.21,23.52z M166.06,16.99c0-0.2-0.08-0.33-0.23-0.38l-0.19,0.38c0.18,0.15,0.28,0.23,0.3,0.23h0.11
		V16.99z M166.13,27.28h-0.3v0.3h0.3V27.28z M167.69,5.21c-0.08-0.15-0.18-0.23-0.3-0.23c-0.18,0-0.3,0.08-0.38,0.23l0.27,0.19h0.04
		c0.03,0,0.07-0.02,0.13-0.06S167.59,5.26,167.69,5.21z M167.84,19.23h-0.08c-0.03,0-0.13,0.08-0.3,0.23l0.23,0.19
		c0.05-0.1,0.09-0.17,0.11-0.21s0.04-0.07,0.04-0.09V19.23z M168.07,12.92l-0.23,0.23l0.23,0.19l0.23-0.19L168.07,12.92z
		 M168.38,20.14h-0.3v0.3h0.3V20.14z M169.29,23.52h-0.08c-0.46,0-0.7-0.08-0.72-0.23l-0.19,0.23c0.08,0.15,0.2,0.23,0.38,0.23
		c0.41,0,0.61-0.01,0.61-0.04V23.52z M168.76,21.39h-0.27v0.3h0.27V21.39z M170.43,9.16h-0.34v0.3h0.34V9.16z"/>
	<path class="st2" d="M191.78,22.8c-0.05,0.66-0.15,1.3-0.3,1.92c-0.15,0.62-0.41,1.22-0.76,1.8c-0.41,0.66-0.84,1.21-1.29,1.65
		c-0.46,0.44-0.96,0.73-1.52,0.85c-0.08,0.1-0.21,0.22-0.4,0.34c-0.19,0.13-0.4,0.28-0.63,0.46c-0.56,0.38-1.75,0.6-3.57,0.65
		c-0.51-0.03-1.04-0.07-1.6-0.13s-1.11-0.18-1.67-0.36c-0.66-0.13-1.24-0.29-1.75-0.49c-0.51-0.2-0.96-0.44-1.37-0.72
		c-0.3-0.23-0.65-0.58-1.03-1.04s-0.75-1.02-1.1-1.65c-0.33-0.71-0.59-1.33-0.78-1.86c-0.19-0.53-0.29-1.01-0.29-1.44
		c0.02-1.27,0.3-2.01,0.84-2.24c0.1,0.03,0.2,0.04,0.29,0.04c0.09,0,0.18,0,0.29,0c0.1,0,0.26-0.01,0.47-0.02
		c0.21-0.01,0.44-0.02,0.67-0.04s0.44-0.03,0.65-0.04c0.2-0.01,0.37-0.02,0.49-0.02c1.14,0,1.96,0.28,2.47,0.84
		c0.02,0.74,0.21,1.38,0.55,1.92c0.34,0.54,0.88,1.07,1.62,1.58c0.2,0.15,0.39,0.23,0.57,0.23c0.13,0,0.3-0.04,0.53-0.13
		c0.23-0.09,0.42-0.13,0.57-0.13c0.18,0,0.37,0.08,0.57,0.23c0.3-0.23,0.43-0.56,0.38-0.99h0.19c0.15,0,0.35-0.14,0.61-0.42
		c-0.25-0.2-0.38-0.43-0.38-0.68c0-0.08,0.01-0.17,0.04-0.27c0.03-0.1,0.05-0.21,0.08-0.32c0.03-0.11,0.04-0.23,0.06-0.34
		c0.01-0.11,0.02-0.2,0.02-0.25c0.03-0.46-0.35-1.04-1.12-1.75c-0.77-0.71-1.88-1.6-3.33-2.66c0.03-0.1,0.04-0.19,0.06-0.27
		c0.01-0.08,0.02-0.14,0.02-0.19c0-0.48-0.41-0.79-1.22-0.91c-0.96-0.68-1.76-1.35-2.39-2c-0.63-0.65-1.13-1.21-1.48-1.69
		c-0.53-0.76-0.93-1.54-1.2-2.36c-0.27-0.81-0.36-1.67-0.29-2.58c-0.03-1.22,0.15-2.29,0.53-3.21s1.04-1.74,1.98-2.45
		c0.78-0.58,1.67-0.98,2.64-1.2c0.97-0.21,2.12-0.31,3.44-0.29c2.08-0.02,3.81,0.36,5.19,1.14c1.38,0.79,2.26,2,2.64,3.65
		c0.1,0.38,0.23,0.77,0.38,1.16c0.15,0.39,0.23,0.77,0.23,1.12c-0.03,1.17-0.81,1.75-2.36,1.75c-0.25,0-0.53-0.01-0.82-0.04
		c-0.29-0.03-0.61-0.09-0.97-0.19c-0.3-0.05-0.6-0.11-0.87-0.19c-0.28-0.08-0.56-0.15-0.84-0.23l-0.42-1.56l0.19,0.19l0.42-0.46
		c-0.56-0.35-1.1-0.64-1.62-0.85c-0.52-0.21-1.06-0.4-1.61-0.55c-0.2,0.08-0.42,0.22-0.65,0.44c-0.23,0.22-0.42,0.42-0.57,0.63
		c-0.13-0.02-0.27-0.08-0.42-0.15c-0.15-0.08-0.33-0.2-0.53-0.38c-0.43-0.35-0.74-0.53-0.91-0.53c-0.2,0-0.39,0.15-0.57,0.46
		c0.03,0.03,0.13,0.09,0.32,0.19c0.19,0.1,0.45,0.24,0.78,0.42c0.56,0.28,0.84,0.54,0.84,0.8c0,0.05-0.01,0.11-0.02,0.19
		s-0.04,0.15-0.09,0.23c0.02,0.33,0.15,0.67,0.36,1.03c0.21,0.36,0.53,0.71,0.93,1.06c0.48,0.48,0.86,0.89,1.14,1.22
		c0.28,0.33,0.48,0.57,0.61,0.72l-0.19,0.23l0.38,0.38c0.03-0.13,0.14-0.19,0.34-0.19h0.46l4.26,3.65c0.1,0.03,0.27,0.15,0.49,0.38
		c0.15,0.15,0.37,0.54,0.65,1.18c0.1,0.25,0.22,0.47,0.36,0.65c0.14,0.18,0.3,0.32,0.47,0.42c0.25,0.63,0.44,1.26,0.57,1.88
		c0.13,0.62,0.16,1.27,0.11,1.96c0.1,0.25,0.15,0.56,0.15,0.91L191.78,22.8z M176.89,8.89h-0.3v0.3h0.3V8.89z M177.42,5.32
		c0.03,0.15,0.17,0.23,0.42,0.23s0.43-0.08,0.53-0.23H177.42z M178.33,24.47h-0.3v0.3h0.3V24.47z M178.64,9.8l-0.27,0.38l0.27-0.19
		V9.8z M179.55,26.07h-0.34v0.3h0.34V26.07z M180.23,27.4L180,27.59l0.23,0.23l0.23-0.23L180.23,27.4z M180.46,11.63h-0.23
		l0.23,0.19V11.63z M181.07,13.83l-0.61,0.61l0.8-0.61H181.07z M180.95,10.3h-0.3v0.3h0.3V10.3z M182.32,12.54h-0.27v0.3h0.27V12.54
		z M183.58,2.01h-0.3v0.3h0.3V2.01z M184.3,27.59c-0.1-0.13-0.23-0.19-0.38-0.19h-0.08h-0.15l0.38,0.42L184.3,27.59z M184.18,14.14
		h-0.3v0.3h0.3V14.14z M185.1,26.79l-0.19,0.19l0.19,0.23l0.19-0.23L185.1,26.79z M186.27,17.9c-0.1-0.15-0.25-0.23-0.46-0.23
		c-0.25,0-0.43,0.08-0.53,0.23l0.19,0.19h0.49C186.15,18.09,186.25,18.03,186.27,17.9z M186.73,23.56
		c-0.08-0.15-0.23-0.23-0.46-0.23c-0.18,0-0.3,0.08-0.38,0.23c0.08,0.15,0.19,0.23,0.34,0.23c0.35,0,0.52-0.01,0.49-0.04V23.56z
		 M186.43,21.43h-0.3v0.3h0.3V21.43z M186.73,17.06l-0.23-0.19l0.23,0.42V17.06z M186.81,27.28h-0.3v0.3h0.3V27.28z M189.77,23.56
		c-0.38,0-0.58-0.06-0.61-0.19l-0.23,0.19c0.08,0.15,0.19,0.23,0.34,0.23c0.35,0,0.52-0.01,0.49-0.04V23.56z"/>
</g>
</svg>
