<?xml version="1.0" encoding="utf-8"?>
<!-- Generator: Adobe Illustrator 24.1.3, SVG Export Plug-In . SVG Version: 6.00 Build 0)  -->
<svg version="1.1" id="Layer_1" xmlns="http://www.w3.org/2000/svg" xmlns:xlink="http://www.w3.org/1999/xlink" x="0px" y="0px"
	 viewBox="0 0 40 40" style="enable-background:new 0 0 40 40;" xml:space="preserve">
<style type="text/css">
	.st0{fill:#FFFFFF;}
</style>
<path class="st0" d="M38.66,4.44H1.34C0.6,4.44,0,3.85,0,3.11l0-1.77C0,0.6,0.6,0,1.34,0l37.33,0C39.4,0,40,0.6,40,1.34v1.77
	C40,3.85,39.4,4.44,38.66,4.44z"/>
<path class="st0" d="M38.66,22.22H1.34C0.6,22.22,0,21.62,0,20.89l0-1.77c0-0.74,0.6-1.34,1.34-1.34h37.33
	c0.74,0,1.34,0.6,1.34,1.34v1.77C40,21.62,39.4,22.22,38.66,22.22z"/>
<path class="st0" d="M38.66,40H1.34C0.6,40,0,39.4,0,38.66l0-1.77c0-0.74,0.6-1.34,1.34-1.34h37.33c0.74,0,1.34,0.6,1.34,1.34v1.77
	C40,39.4,39.4,40,38.66,40z"/>
</svg>
